<?xml version="1.0" encoding="utf-8"?>
<!-- Generator: Adobe Illustrator 22.0.1, SVG Export Plug-In . SVG Version: 6.00 Build 0)  -->
<svg version="1.1" id="Camada_1" xmlns="http://www.w3.org/2000/svg" xmlns:xlink="http://www.w3.org/1999/xlink" x="0px" y="0px"
	 viewBox="0 0 554 674" style="enable-background:new 0 0 554 674;" xml:space="preserve">
<style type="text/css">
	.st0{fill:#12AFCB;}
	.st1{fill:#FFF7F9;}
	.st2{fill:#FFDBEE;}
	.st3{fill:#FF92CD;}
	.st4{fill:#FFD152;}
	.st5{fill:#F8CFDD;}
	.st6{fill:#703F59;}
	.st7{fill:#6CDCF2;}
	.st8{fill:#FFEFF4;}
	.st9{fill:#F3C888;}
	.st10{fill:#F9BD70;}
	.st11{fill:#FFE7A4;}
	.st12{fill:#F2F3F5;}
	.st13{fill:#FEDAC6;}
	.st14{fill:#664E2B;}
	.st15{fill:#86604F;}
	.st16{fill:#CCA18F;}
	.st17{fill:#DDF4E4;}
	.st18{fill:#28E7B1;}
	.st19{fill:#EBC6B6;}
	.st20{fill:#6B4434;}
	.st21{fill:#FFF2E1;}
</style>
<path class="st0" d="M130,674c54.2,0,98.2-9.9,98.2-22.2c0-12.2-43.9-22.1-98.2-22.1c-54.2,0-98.2,9.9-98.2,22.1
	C31.8,664.1,75.8,674,130,674z"/>
<path class="st0" d="M228.3,340.7c45.4,0,82.2-8.5,82.2-19s-36.8-19-82.2-19s-82.2,8.5-82.2,19S182.9,340.7,228.3,340.7z"/>
<path class="st0" d="M403.6,571.2c68.1,0,123.3-12.7,123.3-28.3s-55.2-28.3-123.3-28.3s-123.3,12.7-123.3,28.3
	S335.5,571.2,403.6,571.2z"/>
<path class="st1" d="M266.2,91.5c-1.2,1.7-2.1,3.3-3.2,4.7c-1.3,1.6-2.7,3.2-4.3,4.5c-3.5,2.8-7.5,3.4-11.7,1.7
	c-5.3-2.2-9.2-6-11.3-11.4c-0.4-1-0.8-2-1.2-3.4c-1,1-1.7,1.7-2.4,2.5c-2.5,2.6-5.2,4.8-8.7,6c-1.1,0.4-2.3,0.7-3.5,0.9
	c-3.9,0.6-6.3-1.7-7.4-4.1c-0.4-0.9-0.7-1.8-1-2.6c-0.9-0.3-1.2,0.4-1.5,0.8c-1.9,2.1-3.7,4.2-5.8,6.2c-2.2,2-4.7,3.5-7.7,4
	c-0.7,0.1-1.4,0.3-2.2,0.3c-4.4,0.2-6.8-1.5-8.7-6.2c-0.4,0.7-0.8,1.3-0.9,1.8c-1.8,5.9-2.5,12-2.5,18.2c0.1,11.9,4,22.7,9.7,32.9
	c1.4,2.6,3,5.1,4.7,7.5c6.5,9.1,15.3,15.1,25.5,19.1c2.9,1.1,6,1.9,9.1,2.4c4,0.6,8,1,12,1c12.3,0.1,23.9-2.8,34.7-8.9
	c5.9-3.4,11.3-7.4,15.9-12.3c6.9-7.5,12.8-15.8,16.3-25.5c0.4-1,0.7-2.1,0.9-3.2c0-0.2-0.2-0.4-0.3-0.9c-0.6,0.1-1.3,0.2-2,0.4
	c-2.1,0.6-3.9,0.1-5.5-1.3c-1.4-1.2-2.6-2.6-3.7-4c-2.7-3.8-5-7.9-6.9-12.2c-0.5-1.1-0.6-2.4-2-3.2c-0.6,0.8-1.1,1.7-1.8,2.3
	c-1,0.9-2.1,1.7-3.3,2.2c-2,1-4,0.6-5.9-0.7c-1.8-1.3-3.2-3.1-4.3-4.9c-2.5-4.1-5-8.2-7.5-12.3C267.3,93,266.8,92.3,266.2,91.5z
	 M231.9,143.6L231.9,143.6c0.1,1.5,0,3,0.3,4.4c0.4,2.5,3.4,5.2,5.8,5.5c3.7,0.5,7.7-2,8.6-5.7c0.3-1.4,0.3-2.9,0.4-4.4
	c0.1-0.8,0.3-1.4,1.2-1.7c0.8-0.2,1.7,0.4,1.9,1.3c0.1,0.5,0.2,1,0.2,1.5c0.2,5.8-2.7,9.9-8.1,11.7c-5.1,1.7-11-1.1-12.8-6.2
	c-1.2-3.3-0.9-6.8-0.4-10.2c0.1-0.7,1.1-1.4,1.6-1.1c0.5,0.2,1.1,0.8,1.2,1.2C232,141.1,231.9,142.4,231.9,143.6z M263.8,134.4
	c-0.2-2.8,1.5-4.6,4.7-4.9c3.1-0.3,5.4,1.6,5.6,4.4c0.2,2.7-1.8,5.1-4.4,5.3C266.7,139.5,264.1,137.3,263.8,134.4z M210.1,122.4
	c-0.2-2,0.7-3.9,2.3-4.7c2.7-1.2,6.6,0.4,7.5,3.3c0.7,2-0.2,4.4-2,5.4C214.8,128.3,210.6,126,210.1,122.4z"/>
<path class="st2" d="M292.4,72.8c-3.3,0.7-5.9-0.4-8.1-2.2c-2.3-1.8-4.5-3.8-6.8-5.6c-0.9-0.8-1.9-1.6-2.9-2.2
	c-0.9-0.6-1.9-0.9-3.1-1c-1.8-0.1-3.6-0.6-5.4-1.1c-2-0.6-3.9-1.6-4.6-3.5c-4.2-0.8-8.1-1.5-12.1-2.2c-2.5-0.5-5.1-0.6-7.6-0.6
	c-12.2-0.1-23.3,3.6-33.4,10.3c-8.6,5.7-15.2,13.4-19.8,22.8c-0.5,0.9-0.6,1.8-0.3,2.8c0.5,1.5,0.7,3.1,1.2,4.6
	c0.7,2.3,1.8,3.2,4.2,3.2c2,0,4-0.3,5.6-1.5c1.9-1.3,3.8-2.7,5.4-4.4c2.3-2.4,4.4-5,5.9-7.9c0.3-0.5,0.7-1,1.1-1.4
	c0.5-0.5,1.7-0.2,1.9,0.4c0.3,0.5,0.5,1.1,0.6,1.7c0.3,1.7,0.5,3.4,0.9,5.1c0.8,3.1,2.7,4.3,5.7,3.5c5-1.3,8.6-4.5,11.4-8.7
	c0.8-1.1,1.3-2.4,2-3.5c0.2-0.4,0.5-0.8,0.8-1.2c0.6-0.6,1.9-0.3,2.1,0.5c0.2,0.7,0.2,1.5,0.3,2.2c0.3,1.7,0.5,3.4,0.9,5.1
	c1.4,5.4,4.7,9.1,9.7,11.3c3.3,1.4,6.4,1,9.3-1.3c2.9-2.4,4.8-5.5,6.4-8.9c0.4-0.8,0.7-1.6,1.1-2.3c0.5-0.8,1.9-0.9,2.6-0.1
	c0.5,0.7,0.9,1.4,1.4,2.2c3,5,5.9,9.9,8.9,14.9c0.9,1.4,2,2.8,3.2,4c1.5,1.6,3.2,1.5,4.9,0.2c1.4-1.1,2.2-2.6,3-4.1
	c0.5-1,0.9-2,1.5-2.9c0.7-1,2.2-0.8,2.6,0.4c0.2,0.6,0.3,1.2,0.5,1.8c1.8,6.8,5.3,12.7,9.2,18.4c0.3,0.5,0.8,1,1.2,1.4
	c2.3,2.4,5.2,2.6,7.8,0.5c0.9-0.7,1-1.7,1-2.7c0.2-4.2,0.1-8.4-0.6-12.5c-1.5-8.5-5-16.2-10-23.2C299,80.7,295.7,76.9,292.4,72.8z"
	/>
<path class="st3" d="M249.9,181.4c-8.2,0.3-16.1,0.1-24-1.8c-1.9,3-3.1,6.3-4.5,9.4c-7.2,16-13.5,32.4-18,49.5
	c1.2,2.4,3.4,3.2,5.6,3.9c6.3,2.1,12.7,3.3,19.4,2.9c6.3-0.4,12.7-0.4,18.9-2.1c5.8-1.6,11.5-3.3,17.2-5.2c1.6-0.5,3.1-1.5,4.5-2.4
	c1.1-0.7,1.3-1.4,0.7-2.5c-0.3-0.6-0.6-1.1-0.9-1.6c-4.5-7.8-7.9-16.1-11-24.6c-2.7-7.4-5.2-14.9-7-22.5
	C250.8,183.5,250.4,182.6,249.9,181.4z"/>
<path class="st2" d="M280.6,250.3c-1.2-2.6-5.5-9.1-8.2-12.6c-0.5,0.2-1,0.4-1.5,0.7c-2.7,1.7-5.6,2.9-8.6,3.9
	c-7.4,2.4-14.9,4.7-22.7,5.5c-6.2,0.6-12.4,1-18.6,0.5c-5.9-0.5-11.5-2-16.8-4.6c-0.5-0.3-1.1-0.4-1.8-0.6
	c-1.5,4.3-1.8,8.5-1.2,12.9c0.2,1.3,0.9,2.3,2.1,2.8c1.3,0.6,2.7,1.1,4.2,1.4c5.9,1.3,11.8,1.8,17.8,1.6c4.6-0.2,9.3-0.5,13.9-0.8
	c9.3-0.5,18.3-2.7,27.2-5.4c4.2-1.3,8.3-2.8,12.4-4.3C279.4,251,280,250.6,280.6,250.3z"/>
<path class="st2" d="M267,46c2.4,0.7,4.8,1.3,7.4,2c6.2-4.7,12-9.9,15.8-17c2.7-5.1,3.1-10.6,1.4-16.1c-0.4-1.1-1-2.2-1.7-3.3
	s-1.9-1.1-2.8-0.2c-0.9,1-1.8,2-2.4,3.2c-1,1.8-1.8,3.8-2.7,5.7c-0.4,0.8-0.6,1.6-1.1,2.3c-0.3,0.4-1.1,0.7-1.5,0.7
	c-0.5-0.1-1-0.7-1.2-1.2c-0.3-0.7-0.2-1.4-0.4-2.2c-0.6-2.6-1.1-5.3-1.7-7.9c-0.3-1.4-1-2.8-2.2-4c-0.4,0.5-0.8,0.8-1,1.3
	c-0.5,1.5-0.8,3.1-1.2,4.6c-0.1,0.6-0.2,1.2-0.5,1.7c-0.2,0.4-0.7,0.8-1.1,0.8c-0.5,0-1.3-0.3-1.5-0.7c-0.6-1.2-0.9-2.5-1.4-3.8
	c-0.3-0.6-0.7-1.2-1.1-2c-1.2,2-1.2,4-1.4,6c-0.2,2-0.3,3.9-0.2,5.9C264.7,30,265.3,37.9,267,46z"/>
<path class="st1" d="M326.8,188.8c-0.5-1.8-1.7-2.4-2.8-3.2c-0.6-0.4-1.3-0.7-1.9-1.2c-0.8-0.7-0.7-2,0.3-2.5
	c0.8-0.3,1.6-0.5,2.4-0.8c0.9-0.3,1.8-0.6,2.7-1c0.7-0.3,1.1-0.9,0.9-1.8c-0.2-0.8-0.7-1.3-1.5-1.4c-0.6-0.1-1.2,0.1-1.8,0.1
	c-0.8,0-1.5-0.2-1.8-1c-0.3-0.7,0-1.5,0.9-2.2c0.3-0.2,0.6-0.4,0.9-0.6c2.6-1.8,3-3,2.1-6.8c-1.5-0.3-2.8,0.4-4.1,1
	c-2,0.9-3.9,2-5.9,2.9c-0.9,0.4-1.6,1.1-2.1,2c-0.4,0.7-1.1,1-1.9,0.8s-1.2-0.9-1.3-1.6c-0.1-0.7,0.2-1.4,0.2-2.1
	c0-1.1,0.1-2.2-0.1-3.3c-0.2-1-0.9-1.7-1.8-2.2c-1.1-0.6-2.2-0.2-2.7,1c-0.3,0.7-0.5,1.4-0.6,2.1c-0.3,2.6-0.5,5.1-0.7,7.7
	c-0.1,0.9,0.1,1.7,0,2.6c-0.8,4.7,0.4,9,2.5,13.1c2.1,4.3,5.5,6.1,10.5,5.8c0.9-1.4,0.2-2.8-0.2-4.2c-0.2-0.7-0.6-1.4-0.8-2.1
	c-0.3-1,0.8-2,1.8-1.7c0.7,0.2,1.3,0.6,2,0.9C323.6,189.7,325.1,189.7,326.8,188.8z"/>
<path class="st1" d="M303.4,150.4c1.2,0.3,2,0.6,2.7,0.6c5.4-0.2,10.5-1.3,14.4-5.2c4.3-4.2,6.1-9.4,4.7-15.5
	c-0.7-3.1-2.9-4.8-5.8-5.5c-2.4-0.5-4.1,0.5-4.9,2.7c-0.5,1.5-0.9,3.1-1.4,4.6c-1.9,5.4-4.5,10.3-7.7,15.1
	C304.8,148.2,304.3,149.1,303.4,150.4z"/>
<path class="st1" d="M164.8,143.3c-1.3,0.2-1.5,1.1-1.6,1.9c0,1.5,0.1,2.9,0.2,4.4c0.2,2.1,0,3-1,3.1c-1.4,0.3-1.8-0.8-2.5-1.7
	c-0.6-0.9-1.3-1.8-2.1-2.5c-0.5-0.5-1.3-0.9-2-0.3c-0.4,0.4-0.7,1.1-0.6,1.6c0.2,1.2,0.6,2.4,1,3.5c0.2,0.6,0.7,1.1,0.7,1.7
	c0,0.5-0.2,1.3-0.6,1.6c-0.4,0.3-1.2,0.3-1.6,0.1c-1.1-0.7-2.1-1.8-3.6-1.6c-0.6,0.1-1.1,0.3-1.5,0.4c-0.3,1,0.3,1.4,0.7,1.7
	c0.5,0.3,1.1,0.5,1.6,0.8c1.5,0.9,1.6,2.2,0.1,3.1c-0.6,0.4-1.3,0.6-1.9,1.1c-0.5,0.3-0.8,0.8-1.5,1.4c0.6,0.4,1,0.9,1.5,1.1
	c2.6,1,5.2,1.1,7.9,1c1.4-0.1,2.9-0.2,4.3-0.1c3,0.1,5.6-0.6,7.4-3.1c1.8-2.5,3.7-4.9,5.4-7.4c0.8-1.1,1.3-2.4,1.1-3.8
	c-0.1-0.4-0.3-1.1-0.7-1.2c-0.5-0.2-1.3-0.2-1.6,0.1c-1,1-1.9,2.2-2.7,3.4c-0.6,0.9-1.1,2.1-2.5,1.7c-1.1-0.3-1.1-1.5-1.2-2.4
	c-0.3-2.7-0.7-5.4-1.9-7.8C165.6,144.4,165.1,143.8,164.8,143.3z"/>
<path class="st1" d="M179.3,124.4c-0.1-1.9-0.1-3.1-0.2-4.3c-0.5-6.8-0.1-13.5,1.4-20.2c0.1-0.4,0.2-0.7,0.3-1.1
	c0.8-2.6-0.6-4.5-2.6-5.9c-1.6-1.2-4.5-1.2-6.4,0.5c-2.4,2.2-3.8,4.8-3.9,8c-0.1,7.5,2.6,13.9,7.1,19.7c0.6,0.8,1.4,1.4,2.2,2
	C177.6,123.5,178.1,123.8,179.3,124.4z"/>
<path class="st3" d="M160.5,263.2c-0.7,1.9-0.5,3.6,0.1,5.2c2.5,5.8,6.3,10.5,12,13.3c0.2,0.1,0.5,0.1,0.8,0.1
	c0.9-1.1,1.2-2.3,0.7-3.6c-1.7-4.8-4-9.2-7.9-12.6c-1.2-1-2.6-1.7-4.1-2.4C161.7,263,161.1,263.2,160.5,263.2z"/>
<path class="st3" d="M267.3,301.4c-0.6,1.4-1.3,2.8-1.8,4.3c-0.9,2.7-1.8,5.3-2.7,8c-0.5,1.4-0.6,2.9-0.2,4.4c0.3,1,1.2,1.6,2.3,1.2
	c1.2-0.4,2.1-1.2,2.9-2.2c2.5-3.4,3.6-7.1,3.4-11.4C271,303.3,270,301.8,267.3,301.4z"/>
<path class="st4" d="M262.3,53.6c1.5-1.7,1.7-3.3,1.6-5.1c-0.2-2.6-0.9-5.1-1.7-7.5c-1.4-4.4-3.5-8.4-6.2-12.1
	c-1.1-1.4-2.4-2.8-3.9-3.9c-1.8-1.3-3.4-0.9-4.6,1.1c-1.4,2.2-1.9,4.8-2,7.4c-0.2,5.1,0.2,10.1,0.9,15.1c0.2,1.4,0.7,2.5,2.3,3
	C253.1,52.7,257.6,53.7,262.3,53.6z"/>
<path class="st4" d="M275.8,59.5c3.2,2.7,6.4,5.3,9.6,8c0.8,0.7,1.8,1.3,2.8,1.8c1.8,0.9,3.3,0.5,4.5-1.2c0.3-0.4,0.5-0.8,0.7-1.3
	c2.7-5.1,5-10.4,6.7-16c0.5-1.7,1.1-3.5,0.2-5.3c-1.2-0.8-2.5-0.4-3.6-0.3c-3.5,0.4-15.1,3.6-18.6,5.1c-0.3,1.4-0.7,2.9-1.1,4.4
	C276.6,56.3,276.2,57.8,275.8,59.5z"/>
<path class="st4" d="M265.1,56.6c1.9,1.2,3.5,1.6,5.2,1.8c1.6,0.2,2.4-0.3,2.9-1.7c0.4-1.3,0.7-2.6,1-3.8c-1.5-2.1-3.5-2.8-5.8-3.2
	C266.6,51.8,266.4,54.3,265.1,56.6z"/>
<path class="st5" d="M281.4,135.8c6.5,0,11.5,5.9,10.9,12.3c-0.3,2.9-1.6,5.2-3.6,6.9c-1.7,1.7-4,2.8-6.2,3.2
	c-5.2,0.8-10-4.4-11-9.1C270.1,142.7,274.7,135.8,281.4,135.8z"/>
<path class="st5" d="M187.4,129.7c0-1.1,0.2-2.1,0.6-3c0.9-4.9,5.2-8.3,10.2-8c5.6,0.3,11.2,3.8,11.3,10c0.1,6.7-6.3,11.5-12.5,10.8
	C192.4,139.1,187.3,134.7,187.4,129.7z"/>
<path class="st6" d="M254.2,183.6c2.2,0.6,3.4,1.8,4.7,2.9c3.7,3.2,7.6,6.2,11.9,8.5c3.4,1.9,7,2.9,10.9,2.9
	c7.8,0.1,15.3-1,22.2-5.2c0.5-0.3,1.1-0.5,1.7-0.8c0.7,0.9,1.2,1.7,1.9,2.4c2.7,3,6,5.1,10.1,5.2c0.6,0,1.2,0,1.8,0
	c2.3-0.3,3.5-1.5,3.7-3.8c0.1-0.7,0-1.5,0-2.4c0.7-0.2,1.3-0.3,2-0.5c0.6-0.1,1.2-0.2,1.8-0.4c3.6-1.1,4.4-3.2,2.4-6.4
	c-0.4-0.6-0.9-1.2-1.5-1.9c0.6-0.4,1.1-0.9,1.7-1.3c2.4-1.5,2.7-3.2,1.8-6.1c-0.3-0.9-1-1.7-1.5-2.7c0.3-0.8,0.7-1.7,1-2.6
	c0.5-1.8,0.5-3.7,0.1-5.5c-0.5-2-1.7-2.9-3.7-2.9s-3.8,0.8-5.6,1.6c-1.7,0.8-3.3,1.6-4.8,2.3c-1.3-0.5-1.2-1.6-1.6-2.5
	c-0.9-2-2.3-3.4-4.5-4c-2.5-0.7-4.6,0.2-5.7,2.6c-0.5,1.2-1,2.6-1.1,3.9c-0.4,3.8-0.7,7.6-0.7,11.4c0,3.4,0.3,6.8,0.5,10.6
	c-3.4,2.6-7.4,4.3-11.8,4.9c-3.3,0.5-6.5,0.7-9.8,0.8c-3,0.2-5.8-0.6-8.5-1.9c-4.3-2.1-8.1-5-11.8-8.1c-1.5-1.2-2.9-2.6-4.5-4.1
	c1.3-0.9,3-0.8,4.4-1.3c1.5-0.5,3-0.9,4.6-1.4s3.2-1.1,4.8-1.8c1.5-0.6,2.9-1.3,4.3-2s2.8-1.4,4.2-2.2c1.4-0.8,2.7-1.6,4.1-2.5
	c1.3-0.9,2.6-1.8,3.9-2.8s2.5-2,3.7-3c1.3-1.1,2.5-2.3,3.8-3.5c1.1-1.1,2.3-2.3,3.3-3.4c1.1-1.2,2-2.4,3-3.6c8,2.2,15,0.4,21-4.7
	c5.2-4.4,7.3-10.3,6.5-17.2c-0.7-6.1-5.1-9.9-11.2-9.8c-0.5,0-0.9,0-1.7,0c0-0.7-0.2-1.2-0.1-1.8c0.7-10.4-1.9-20-6.6-29.2
	c-3.2-6.3-7.4-11.9-12.1-17.1c-0.7-0.7-1.3-1.4-2.1-2.3c0.4-0.9,0.7-1.8,1.2-2.6c2.5-4.8,4.7-9.7,6.4-14.9c0.5-1.6,1-3.3,1.3-5
	c0.2-0.9,0.2-2,0.1-2.9c-0.3-2.5-1.6-3.7-4.1-3.9c-1.2-0.1-2.5,0-3.6,0.2c-3.5,0.7-6.9,1.6-10.3,2.4c-0.5,0.1-0.9,0.1-1.9,0.3
	c0.7-0.9,1.1-1.4,1.5-2c2.1-2.7,4.5-5.2,6.3-8.1c4.3-6.6,5.1-13.7,2.6-21.2c-0.5-1.5-1.3-2.9-2.3-4.1c-2-2.4-4.8-2.5-7-0.3
	c-1,1-1.9,2.2-2.8,3.4c-0.5,0.7-0.9,1.4-1.5,2.4c-0.4-0.6-0.7-0.9-0.9-1.3c-0.4-1.3-0.7-2.6-1.3-3.8c-0.6-1.3-1.3-2.7-2.2-3.8
	c-1.9-2.3-4-2.1-5.7,0.4c-0.4,0.6-0.7,1.3-1.2,2.1c-0.5-0.6-0.9-1-1.3-1.4c-1.9-1.7-3.9-1.3-5,1c-0.5,1.1-0.9,2.3-1.1,3.5
	c-0.4,3.2-0.7,6.4-0.8,9.5c-0.1,2.6,0.3,5.2,0.4,7.7c0,0.6,0,1.1,0,2.4c-0.9-1.2-1.4-1.9-1.9-2.5c-1.2-1.5-2.3-3.2-3.7-4.6
	c-0.8-0.9-1.8-1.7-2.9-2.3c-2.9-1.7-6.1-1-8.1,1.7c-2,2.8-2.7,6-2.9,9.4c-0.3,5.5,0,11.1,1,16.6c0.1,0.4,0,0.7,0,1.3
	c-0.7,0.1-1.4,0.3-2.1,0.3c-13-0.1-24.7,4.2-35.4,11.3c-7.4,5-13.4,11.5-17.9,19.2c-1.5,2.6-2.8,5.5-4.2,8.2
	c-0.4,0.7-0.8,1.5-1.2,2.3c-0.7-0.6-1.3-1.1-1.8-1.5c-3.7-2.7-8-2.6-11.4,0.5c-2.6,2.4-4.2,5.4-4.6,9c-0.3,2.7-0.1,5.4,0.5,8.1
	c1,3.8,2.3,7.5,4.4,10.9c3,5.1,5,6.7,10.5,9c0.3,1,0.7,2.2,1.1,3.3c3.3,10.8,8.3,20.8,15.4,29.6c1.2,1.5,2.6,3,4,4.3
	c5.6,4.8,11.6,9,18.5,11.8c0.7,0.3,1.3,0.6,2,1c0.1,0.1,0.1,0.2,0.3,0.5c-0.3,0.4-0.6,0.9-1,1.2c-3.5,3.3-7.3,6.2-11.8,8
	c-6.3,2.6-12.7,3.2-19.3,0.9c-4.4-1.6-8-4.2-10.9-7.9c-2.5-3.2-4.8-6.5-7.2-9.8c-0.9-1.2-1.6-2.5-1.6-4.2c3.5-3,6.3-6.6,8.7-10.7
	c1.1-2,1.7-4.1,1.2-6.4c-0.5-2.5-2.9-4.1-5.2-3.6c-0.6,0.1-1.2,0.4-1.7,0.7c-0.6,0.4-1.2,0.8-2,1.4c-0.3-0.7-0.6-1.4-0.9-2
	c-0.7-1.7-1.3-3.5-2.3-5c-1.7-2.6-4.6-2.5-6.4,0c-0.7,1.1-1.2,2.4-1.8,3.7c-0.8-0.2-1.6-0.5-2.4-0.6c-2.5-0.3-4.3,0.9-4.9,3.4
	c-0.2,1.1-0.3,2.2-0.5,3.4c-0.9,0.2-1.9,0.3-2.8,0.6c-2.5,0.9-3.4,2.8-2.4,5.3c0.3,0.8,0.8,1.5,1.3,2.2c-0.6,0.8-1.2,1.6-1.7,2.4
	c-0.9,1.8-0.3,3.8,1.4,4.8c0.7,0.5,1.5,0.9,2.3,1.1c2.1,0.4,4.4,1.1,6.5,1c3.6-0.3,7,0.7,10.2,0.9c3.2,4.4,6.1,8.7,9.2,12.7
	c4.7,6.1,10.9,9.8,18.6,10.7c5.1,0.6,10,0,14.7-2c2.6-1.1,5-2.6,7.4-4c0.7-0.4,1.4-0.9,2.1-1.3c0.8,0.9,0.1,1.5-0.1,2.1
	c-2.3,5.6-4.7,11.1-7,16.6c-5,12.2-8.7,24.8-12.2,37.5c-1.1,4-1.7,8.2-1.4,12.4c0.3,4.1,2.4,6.6,6.2,7.7c1.7,0.5,3.4,1,5.3,1.5
	c-7,8.9-21.4,16.6-31,16c-0.3-0.8-0.6-1.7-0.9-2.6c-1.8-5.2-4.3-9.9-8.4-13.7c-1.1-1-2.3-1.8-3.5-2.6c-0.5-0.3-1.1-0.6-1.7-0.8
	c-3.6-1.2-6.8-0.3-6.9,4.7c0,1.9,0.4,3.7,1.1,5.4c2.5,5.5,6.2,10,11.3,13.2c1.2,0.8,2.7,1.2,4,1.7s2.5,0.3,3.3-0.8
	c0.6-0.8,1.3-0.9,2.2-1c7.8-0.6,15-3.2,21.5-7.5c4.8-3.2,9.2-6.9,13.1-11.3c13.4,0.8,26.8-0.2,40.1-2.2c1.3,0.9,1.9,2.2,2.3,3.6
	c1.1,3.5,2.1,7.1,3.2,10.6c1.9,5.9,3.8,11.7,5.7,17.5c0.3,0.8,0.5,1.6,0.8,2.6c-0.8,1-1.5,2-1.6,3.5c0,1.1-0.6,2.1-1,3.1
	c-1,3-2.1,6-3.1,9.1c-0.6,1.9-0.8,3.8-0.5,5.8c0.7,3.9,3.8,5.6,7.3,3.7c1.3-0.7,2.5-1.6,3.4-2.8c3.5-4.6,4.9-9.8,3.9-15.6
	c-0.3-1.8-1.1-3.4-2.7-4.1c-1.5-0.7-2-2-2.5-3.4c-2.8-8.5-5.9-17-8.2-25.7c-0.8-2.9-1.9-5.8-2.9-8.9c0.6-0.2,1.1-0.5,1.7-0.7
	c4.3-1.3,8.7-2.4,13-3.8c3.4-1.1,6.6-2.5,9.9-3.8c0.6-0.2,1.1-0.5,1.6-0.9c0.8-0.5,1-1.4,0.6-2.3c-0.4-0.9-1-1.7-1.5-2.5
	c-2.6-4-5.3-8-7.9-12c-6.2-9.4-10.6-19.7-14.3-30.3c-2.3-6.5-4.2-13.1-6.2-19.7C254.5,185.1,254.4,184.6,254.2,183.6z M266.2,91.5
	c0.6,0.8,1.1,1.5,1.5,2.2c2.5,4.1,4.9,8.2,7.5,12.3c1.2,1.9,2.5,3.6,4.3,4.9s3.8,1.7,5.9,0.7c1.2-0.6,2.3-1.4,3.3-2.2
	c0.7-0.6,1.2-1.5,1.8-2.3c1.4,0.8,1.5,2.1,2,3.2c1.9,4.3,4.1,8.4,6.9,12.2c1.1,1.5,2.4,2.8,3.7,4c1.5,1.4,3.4,1.9,5.5,1.3
	c0.7-0.2,1.4-0.3,2-0.4c0.2,0.4,0.4,0.7,0.3,0.9c-0.3,1.1-0.6,2.1-0.9,3.2c-3.5,9.8-9.4,18-16.3,25.5c-4.6,5-10,9-15.9,12.3
	c-10.8,6.1-22.4,9-34.7,8.9c-4,0-8-0.4-12-1c-3.1-0.5-6.2-1.3-9.1-2.4c-10.2-4-19-10-25.5-19.1c-1.7-2.4-3.2-4.9-4.7-7.5
	c-5.7-10.2-9.6-21-9.7-32.9c0-6.2,0.7-12.3,2.5-18.2c0.2-0.6,0.6-1.1,0.9-1.8c1.9,4.7,4.3,6.4,8.7,6.2c0.7,0,1.5-0.2,2.2-0.3
	c3-0.6,5.5-2,7.7-4c2-1.9,3.8-4.1,5.8-6.2c0.4-0.4,0.6-1.1,1.5-0.8c0.3,0.8,0.6,1.8,1,2.6c1.1,2.4,3.5,4.8,7.4,4.1
	c1.2-0.2,2.4-0.5,3.5-0.9c3.4-1.2,6.2-3.4,8.7-6c0.7-0.8,1.5-1.5,2.4-2.5c0.5,1.3,0.9,2.4,1.3,3.4c2.1,5.5,6,9.2,11.3,11.4
	c4.2,1.7,8.2,1.2,11.7-1.7c1.6-1.3,3-2.9,4.3-4.5C264.1,94.8,265,93.2,266.2,91.5z M292.4,72.8c3.3,4.1,6.6,7.9,9.5,12
	c4.9,7,8.4,14.7,10,23.2c0.8,4.1,0.8,8.3,0.6,12.5c0,1-0.2,2-1,2.7c-2.6,2.1-5.5,1.9-7.8-0.5c-0.4-0.4-0.9-0.9-1.2-1.4
	c-3.9-5.7-7.4-11.6-9.2-18.4c-0.2-0.6-0.3-1.2-0.5-1.8c-0.5-1.2-2-1.4-2.6-0.4c-0.6,0.9-1,2-1.5,2.9c-0.8,1.5-1.6,3.1-3,4.1
	c-1.8,1.3-3.4,1.3-4.9-0.2c-1.2-1.2-2.3-2.6-3.2-4c-3-4.9-5.9-9.9-8.9-14.9c-0.4-0.7-0.8-1.5-1.4-2.2c-0.6-0.8-2-0.7-2.6,0.1
	c-0.4,0.7-0.7,1.5-1.1,2.3c-1.6,3.4-3.5,6.5-6.4,8.9c-2.8,2.3-6,2.8-9.3,1.3c-5-2.2-8.4-5.9-9.7-11.3c-0.4-1.7-0.6-3.4-0.9-5.1
	c-0.1-0.7-0.1-1.5-0.3-2.2c-0.2-0.8-1.5-1.1-2.1-0.5c-0.3,0.3-0.6,0.8-0.8,1.2c-0.7,1.2-1.2,2.4-2,3.5c-2.8,4.2-6.4,7.4-11.4,8.7
	c-3.1,0.8-5-0.3-5.7-3.5c-0.4-1.7-0.6-3.4-0.9-5.1c-0.1-0.6-0.3-1.2-0.6-1.7c-0.3-0.6-1.5-0.8-1.9-0.4s-0.8,0.9-1.1,1.4
	c-1.5,3-3.6,5.6-5.9,7.9c-1.6,1.7-3.5,3.1-5.4,4.4c-1.6,1.1-3.6,1.5-5.6,1.5c-2.4,0-3.5-0.9-4.2-3.2c-0.5-1.5-0.7-3.1-1.2-4.6
	c-0.3-1-0.2-1.9,0.3-2.8c4.6-9.4,11.2-17,19.8-22.8c10.1-6.7,21.2-10.4,33.4-10.3c2.6,0,5.1,0.1,7.6,0.6c3.9,0.7,7.9,1.4,12.1,2.2
	c0.8,1.9,2.6,2.9,4.6,3.5c1.7,0.5,3.6,0.9,5.4,1.1c1.2,0.1,2.2,0.4,3.1,1c1,0.6,2,1.4,2.9,2.2c2.3,1.9,4.5,3.8,6.8,5.6
	C286.5,72.4,289,73.5,292.4,72.8z M250,181.3c0.4,1.3,0.8,2.1,1.1,3.1c1.9,7.7,4.4,15.1,7,22.5c3,8.5,6.4,16.8,11,24.6
	c0.3,0.5,0.6,1.1,0.9,1.6c0.5,1.1,0.4,1.8-0.7,2.5c-1.5,0.9-2.9,1.9-4.5,2.4c-5.7,1.8-11.4,3.6-17.2,5.2c-6.2,1.7-12.6,1.7-18.9,2.1
	c-6.7,0.4-13.1-0.8-19.4-2.9c-2.2-0.7-4.4-1.5-5.6-3.9c4.4-17,10.7-33.4,17.9-49.5c1.4-3.1,2.5-6.4,4.5-9.4
	C233.8,181.5,241.7,181.7,250,181.3z M280.6,250.3c-0.6,0.3-1.2,0.8-1.9,1c-4.1,1.5-8.2,3-12.4,4.3c-8.9,2.7-17.9,4.8-27.2,5.3
	c-4.6,0.3-9.2,0.6-13.9,0.8c-6,0.3-11.9-0.3-17.8-1.6c-1.4-0.3-2.8-0.8-4.2-1.4c-1.2-0.5-1.9-1.5-2.1-2.8c-0.6-4.3-0.3-8.5,1.2-12.9
	c0.7,0.2,1.3,0.4,1.8,0.6c5.3,2.6,11,4.1,16.8,4.6c6.2,0.5,12.4,0.1,18.6-0.5c7.8-0.7,15.3-3,22.7-5.4c3-1,5.9-2.2,8.6-3.9
	c0.5-0.3,1-0.5,1.5-0.7C275.2,241.1,279.4,247.7,280.6,250.3z M267,46c-1.7-8.1-2.3-16-2.5-24c-0.1-2,0-3.9,0.2-5.9
	c0.2-1.9,0.2-3.9,1.4-6c0.4,0.8,0.9,1.3,1.1,2c0.5,1.2,0.8,2.6,1.4,3.8c0.2,0.4,1,0.7,1.5,0.7c0.4,0,0.9-0.4,1.1-0.8
	c0.3-0.5,0.3-1.2,0.5-1.7c0.4-1.6,0.7-3.1,1.2-4.6c0.1-0.5,0.6-0.8,1-1.3c1.3,1.3,1.9,2.6,2.2,4c0.6,2.6,1.2,5.3,1.7,7.9
	c0.1,0.7,0.1,1.5,0.4,2.2c0.2,0.5,0.7,1.1,1.2,1.2s1.2-0.3,1.5-0.7c0.5-0.7,0.7-1.5,1.1-2.3c0.9-1.9,1.7-3.8,2.7-5.7
	c0.6-1.2,1.5-2.2,2.4-3.2s2.1-0.9,2.8,0.2c0.7,1,1.3,2.1,1.7,3.3c1.7,5.5,1.4,11-1.4,16.1c-3.8,7.1-9.5,12.3-15.8,17
	C271.8,47.3,269.3,46.6,267,46z M326.8,188.8c-1.6,1-3.1,0.9-4.7,0.3c-0.7-0.3-1.3-0.7-2-0.9c-1-0.3-2,0.6-1.8,1.7
	c0.2,0.7,0.6,1.4,0.8,2.1c0.4,1.4,1.1,2.8,0.2,4.2c-4.9,0.3-8.4-1.5-10.5-5.8c-2.1-4.1-3.2-8.5-2.5-13.1c0.1-0.8-0.1-1.7,0-2.6
	c0.2-2.6,0.4-5.1,0.7-7.7c0.1-0.7,0.3-1.4,0.6-2.1c0.5-1.2,1.6-1.5,2.7-1c0.9,0.5,1.6,1.2,1.8,2.2c0.2,1.1,0.1,2.2,0.1,3.3
	c0,0.7-0.2,1.4-0.2,2.1c0.1,0.7,0.5,1.4,1.3,1.6c0.8,0.2,1.5-0.1,1.9-0.8c0.5-0.9,1.1-1.5,2.1-2c2-0.9,3.9-2,5.9-2.9
	c1.3-0.5,2.6-1.3,4.1-1c0.9,3.7,0.5,4.9-2.1,6.8c-0.3,0.2-0.6,0.4-0.9,0.6c-0.9,0.7-1.2,1.4-0.9,2.2c0.3,0.8,1,1,1.8,1
	c0.6,0,1.2-0.1,1.8-0.1c0.8,0.1,1.3,0.7,1.5,1.4c0.2,0.8-0.2,1.5-0.9,1.8c-0.9,0.4-1.8,0.7-2.7,1c-0.8,0.3-1.6,0.4-2.4,0.8
	c-1,0.4-1.1,1.8-0.3,2.5c0.6,0.4,1.3,0.7,1.9,1.2C325,186.3,326.3,187,326.8,188.8z M262.3,53.6c-4.7,0.1-9.2-0.9-13.7-2.1
	c-1.6-0.4-2.1-1.5-2.3-3c-0.7-5-1.1-10-0.9-15.1c0.1-2.6,0.6-5.1,2-7.4c1.2-1.9,2.8-2.4,4.6-1.1c1.4,1.1,2.8,2.4,3.9,3.9
	c2.8,3.6,4.8,7.7,6.2,12.1c0.8,2.5,1.5,4.9,1.7,7.5C264,50.2,263.8,51.8,262.3,53.6z M275.8,59.5c0.4-1.6,0.8-3.2,1.2-4.7
	c0.4-1.5,0.7-3.1,1.1-4.4c3.5-1.5,15.1-4.7,18.6-5.1c1.2-0.1,2.4-0.5,3.6,0.3c0.9,1.8,0.3,3.6-0.2,5.3c-1.7,5.5-4,10.8-6.7,16
	c-0.2,0.4-0.5,0.9-0.7,1.3c-1.2,1.7-2.7,2.1-4.5,1.2c-1-0.5-1.9-1.1-2.8-1.8C282.2,64.8,279,62.1,275.8,59.5z M303.4,150.4
	c0.8-1.3,1.4-2.3,2-3.2c3.1-4.7,5.8-9.7,7.6-15.1c0.5-1.5,0.9-3.1,1.4-4.6c0.8-2.3,2.5-3.3,4.9-2.7c3,0.7,5.1,2.4,5.8,5.5
	c1.5,6.1-0.4,11.2-4.7,15.5c-4,3.9-9.1,5-14.4,5.2C305.4,151.1,304.7,150.7,303.4,150.4z M164.8,143.3c0.4,0.5,0.9,1,1.2,1.7
	c1.2,2.5,1.6,5.1,1.9,7.8c0.1,1,0.1,2.1,1.3,2.4c1.4,0.4,1.8-0.8,2.5-1.7c0.9-1.2,1.7-2.4,2.7-3.4c0.3-0.3,1.2-0.3,1.6-0.1
	c0.3,0.1,0.6,0.8,0.7,1.2c0.2,1.4-0.4,2.7-1.1,3.8c-1.7,2.5-3.6,4.9-5.4,7.4c-1.9,2.5-4.4,3.2-7.4,3.1c-1.4,0-2.9,0.1-4.3,0.1
	c-2.7,0.2-5.4,0-7.9-1c-0.5-0.2-0.9-0.6-1.5-1.1c0.6-0.6,1-1.1,1.5-1.4c0.6-0.4,1.3-0.7,1.9-1.1c1.4-0.9,1.4-2.2-0.1-3.1
	c-0.5-0.3-1.1-0.5-1.6-0.8s-1-0.7-0.7-1.7c0.4-0.1,1-0.3,1.5-0.4c1.5-0.2,2.4,0.9,3.6,1.6c0.4,0.3,1.3,0.2,1.6-0.1
	c0.4-0.3,0.6-1,0.6-1.6s-0.6-1.1-0.7-1.7c-0.4-1.1-0.8-2.3-1-3.5c-0.1-0.5,0.2-1.2,0.6-1.6c0.6-0.6,1.5-0.2,2,0.3
	c0.8,0.7,1.4,1.6,2.1,2.5c0.6,0.9,1.1,2,2.5,1.7c0.9-0.2,1.2-1.1,1-3.1c-0.1-1.5-0.2-2.9-0.2-4.4
	C163.3,144.4,163.5,143.5,164.8,143.3z M179.3,124.4c-1.2-0.6-1.7-0.9-2.2-1.2c-0.8-0.6-1.6-1.2-2.2-2c-4.5-5.8-7.2-12.2-7.1-19.7
	c0.1-3.3,1.5-5.9,3.9-8c1.9-1.8,4.8-1.7,6.4-0.5c2,1.4,3.4,3.3,2.6,5.9c-0.1,0.4-0.2,0.7-0.3,1.1c-1.5,6.7-1.9,13.4-1.4,20.2
	C179.2,121.3,179.2,122.5,179.3,124.4z M160.5,263.2c0.6,0,1.3-0.2,1.7,0c1.4,0.7,2.9,1.4,4.1,2.4c3.9,3.4,6.2,7.8,7.9,12.6
	c0.5,1.4,0.1,2.6-0.7,3.6c-0.4-0.1-0.6,0-0.8-0.1c-5.7-2.8-9.5-7.5-12-13.3C160,266.8,159.8,265,160.5,263.2z M267.3,301.4
	c2.7,0.4,3.7,1.9,3.8,4.3c0.2,4.2-0.9,8-3.4,11.4c-0.7,1-1.6,1.8-2.9,2.2c-1,0.3-2-0.2-2.3-1.2c-0.4-1.5-0.2-2.9,0.2-4.4
	c0.9-2.7,1.7-5.4,2.7-8C266.1,304.2,266.7,302.8,267.3,301.4z M265.1,56.6c1.4-2.3,1.5-4.9,3.2-6.8c2.3,0.4,4.3,1,5.8,3.2
	c-0.3,1.2-0.5,2.6-1,3.8c-0.5,1.4-1.3,1.8-2.9,1.7C268.6,58.3,267,57.9,265.1,56.6z"/>
<path class="st6" d="M231.9,143.6c0-1.2,0.1-2.5-0.1-3.7c-0.1-0.5-0.7-1-1.2-1.2c-0.5-0.3-1.5,0.4-1.6,1.1
	c-0.4,3.4-0.8,6.9,0.4,10.2c1.9,5.1,7.7,7.9,12.8,6.2c5.5-1.8,8.4-6,8.1-11.7c0-0.5-0.1-1-0.2-1.5c-0.2-0.9-1.1-1.5-1.9-1.3
	c-0.9,0.2-1.1,0.9-1.2,1.7c-0.1,1.5-0.1,3-0.4,4.4c-0.9,3.7-4.9,6.3-8.6,5.7c-2.4-0.4-5.4-3-5.8-5.5
	C232,146.6,232,145.1,231.9,143.6L231.9,143.6z"/>
<path class="st6" d="M263.8,134.4c0.2,2.9,2.9,5.1,5.8,4.9c2.6-0.2,4.6-2.6,4.4-5.3c-0.2-2.8-2.5-4.7-5.6-4.4
	C265.3,129.8,263.6,131.6,263.8,134.4z"/>
<path class="st6" d="M210.1,122.4c0.4,3.6,4.7,5.8,7.8,4.1c1.8-1,2.7-3.4,2-5.4c-1-2.8-4.8-4.5-7.5-3.3
	C210.8,118.5,209.9,120.4,210.1,122.4z"/>
<path class="st7" d="M353.4,447.5c-1.6,3-1.9,5.6-1.8,8.4c0.3,4.8,1.9,6.7,6.6,7.7c5.1,1.1,10.1,2,15.2,3.1
	c5.9,1.2,11.8,2.5,17.6,3.7c1.3-1.9,2.3-3.7,3.6-5.2c1.5-1.8,3.1-3.6,5.1-5c5.4-3.8,10.9-3.6,16.3,0.3c2.9,2.1,4.9,4.8,6.2,8
	c0.5,1.1,0.7,2.2,1.1,3.6c1,0.1,2,0.5,2.9,0.4c8.6-0.4,17.2-0.8,25.8-1.4c2.2-0.1,4.4-0.6,6.6-1.1c1.8-0.4,3.7-0.9,5.1-2.6
	c0.4-2.8-1-5.5-1.4-8.1c-1.4-1.3-2.8-0.7-4.1-0.6c-4.2,0.2-8.2-0.5-11.8-2.9c-5.7-3.8-7.3-11.3-3.3-17c2.5-3.6,5.7-5.9,10.4-5.5
	c0.8,0.1,1.7-0.1,2.5-0.1c-0.1-4.1-3.5-18.4-6.4-27c-1.2-0.3-2.5-0.6-3.8-0.9c-3-0.7-6-1.7-8.5-3.5c-3.3-2.3-5.1-5.3-5.2-9.4
	c-0.1-5,1-9.5,4.7-13c1.5-1.4,3.3-2.3,5.2-3.7c-0.3-4.3-1.3-8.7-3.3-13c-4.1-0.3-8,0.5-12.1,0.7c-0.9,1.3-1.7,2.6-2.5,3.8
	c-1.3,1.8-2.7,3.5-4.7,4.6c-3.9,2.2-8.1,2-11.6-0.8c-2.3-1.8-4.2-4-5.2-6.8c-0.3-0.9-0.7-1.9-1-2.8c-3.8-1.4-7.5-2.7-11.4-4
	c-1.8,2.5-2.2,5.4-3.9,7.9c1.2,0.8,2,1.3,2.9,1.8c3.4,2.4,5.5,5.6,6.6,9.5c2.2,7.4-2.9,15.9-10.4,18c-2.8,0.8-5.5,0.3-8.1-0.5
	c-1.3-0.4-2.5-1.1-4-1.7c-2.8,4.5-4.1,9.4-5.9,14.1c-1.9,4.7-3.6,9.6-5.4,14.6c0.7,0.3,1.3,0.7,1.8,0.8c6.4,1.2,9.1,5.7,10.5,11.2
	c1.1,4.3,0.1,8.1-3.5,11c-1.6,1.3-3.2,2.6-5,3.6c-3.3,1.8-6.8,2.3-10.4,0.7C355,448.2,354.4,447.9,353.4,447.5z M394.1,420.9
	c-0.3-6.6,3-12.1,8.7-15.1c4.8-2.6,10.3-1.6,14.2,2.2c5.2,5.2,5.1,15.6,2.1,20c-1.9,2.8-4.1,5-7.8,5.3c-5.5,0.5-10.2-1.2-14-5.1
	C395.3,426,394.3,423.3,394.1,420.9z"/>
<path class="st8" d="M435.8,276.3c-7.3-2.4-14.3-6.3-22.8-4.2c-0.8,2-1.4,3.9-2.2,5.8c-1.2,2.8-2.3,5.7-3.7,8.4
	c-1.5,3.1-3.7,5.7-6.6,7.7c-1.5,1.1-3.1,2.2-4.6,3.3c-10.7,8.3-28.4,6.6-38.7-2.5c-1.8-1.6-3.2-3.5-4.8-5.3c-1.3,0.2-0.9,1.2-0.8,2
	c0.7,8.2,2.6,16,6.4,23.4c4.7,9.1,9.8,17.9,17,25.4c10.7,11,23.8,17.1,39.2,18.3c17.4,1.3,33.9-2,49.8-9.1
	c11.1-4.9,21.3-11.1,30.7-18.7c11.2-9.1,18.9-20.6,23.8-34c0.2-0.6,0.2-1.3,0.4-2.1c-3.4-0.9-6.7-1.7-10.4-2.7
	c-0.4,0.7-0.9,1.6-1.3,2.5c-4.5,11.3-12.8,19.2-23.7,24.4c-24.5,8.9-44.1-7.3-46.9-25.5c-0.8-5.1-1.5-10.1-0.7-15.2
	C436.1,277.6,435.9,277.1,435.8,276.3z M407.4,304.3c1.5,0.2,4.1,0.5,6.6,0.7c6.1,0.7,12.3,1.4,18.4,1.9c1.8,0.1,2.9,0.7,3.8,2.1
	c0.9,1.5,1.5,3.1,1.4,4.8c-0.3,5.1-1.3,10.1-4.1,14.5c-2.9,4.7-7,7.2-12.6,7.6c-8.1,0.6-15-1.7-17.2-12.1c-1-4.5-1.8-9-2.7-13.4
	c-1-5-0.3-5.9,4.9-6.1C406,304.3,406.2,304.3,407.4,304.3z"/>
<path class="st8" d="M351.1,252.2c-4.4,5.6-4,11.7-2.7,18c2.4,11.7,10,19.4,20.1,25c3,1.7,6.3,2.5,9.9,2.4
	c6.2-0.2,11.9-1.8,16.7-5.8c0.5-0.4,1-0.9,1.6-1.3c4.3-2.4,6.5-6.4,8.3-10.7c1.9-4.6,3.5-9.2,4.3-14.1c0.9-5.1,0.6-10.1-0.8-15.1
	c-0.9-3.2-2.6-5.9-5.1-8c-3.1-2.8-6.9-4.4-10.8-5.7c-1.6-0.5-3.1-0.2-4.2,1.1s-2.4,2.5-3.4,3.8c-4.9,7.1-12.2,9.6-20.4,10.1
	C360.1,252.3,355.8,252.2,351.1,252.2z M376.6,265.3c-0.1-1.3,0.4-3.1,1.4-4.7c1.8-2.8,4.4-3.5,7.6-3c2.5,0.4,3.9,2.1,4.4,5.5
	c0.2,1,0.2,2,0.1,3c-0.5,3.6-3.4,6-7.2,5.8C379.4,271.8,376.8,269.3,376.6,265.3z"/>
<path class="st8" d="M468.2,251.4c-2-0.3-3.6,0.3-5.2,0.8c-10.7,3.3-23.5,17.2-22.4,32.4c0.2,3,0.6,6.1,1.1,9.1
	c2.3,12.5,15.1,25.4,33.6,22.4c4.3-0.7,8.3-2.2,11.9-4.7c5-3.4,9.2-7.7,12.6-12.7c2.3-3.5,2.9-5.2,3.1-9.2c-2.5-1.5-5.2-3-7.8-4.5
	c-9-5.4-16.2-12.6-21.4-21.6c-1.5-2.6-2.7-5.5-4-8.3C469.1,253.9,468.7,252.6,468.2,251.4z M456.9,283c-0.1-3.7,3.7-7.7,7.3-7.8
	c4-0.1,8.1,3.9,8.4,8.2c0.2,3.8-3.2,7-7.8,7.1C460.3,290.6,457,287.6,456.9,283z"/>
<path class="st8" d="M466.5,235c-1.6-0.4-3.1-0.7-4.6-1.1c-6.9-1.7-12-5.6-15.5-11.8c-3.2-5.6-4.6-11.7-5.6-17.9
	c-0.3-1.6-0.6-3.2-0.9-4.8c-1.8-0.1-1.8,1.2-2.2,2c-2.6,5.2-5.9,9.9-9.5,14.5c-5.9,7.4-13.4,12.6-22.1,16.3
	c-1.7,0.7-3.4,1.4-5.7,2.3c1.4,1,2.2,1.7,3.1,2.3c5.8,3.8,9.1,9,10.4,15.8c0.8,4.4,0.9,8.7,0.4,13.3c4,0.7,7.9,1.1,11.7,2
	c3.8,0.9,7.5,2.3,11.5,3.5c6-12.7,14.8-22.2,29.5-25.3C466.8,242.5,466.6,239,466.5,235z"/>
<path class="st8" d="M295,423.1c3.1,0.2,5.2,0.4,7.2,0.5c1.2,0.1,2.4,0.3,3,1.6c0.5,1.1,0,2.3-1.5,3.4c-0.8,0.6-1.8,1.1-2.5,1.8
	c-0.8,0.7-1.5,1.4-2.1,2.2c-0.3,0.4-0.1,1.3,0.1,1.8c0.1,0.3,1,0.5,1.3,0.4c1.3-0.5,2.5-1.1,3.8-1.7c1.1-0.5,2.1-1.3,3.2-1.6
	c0.7-0.2,1.8,0,2.3,0.4c0.5,0.5,0.8,1.6,0.6,2.3c-0.3,1.3-1,2.5-1.4,3.8c-0.3,1.1,0.5,2,1.7,2c1.4,0.1,2.8-0.2,3.3-1.8
	c0.5-1.6,1.1-3,3.1-2.7c1.7,0.3,1.8,1.7,2.1,3.1c0.6,2.6,3.7,3.9,6,2.6c0.5-0.3,1-1,1.2-1.5c0.9-3.1,1.4-6.3,0.9-9.5
	c-0.5-3.5-1.2-7-1.8-10.6c-0.2-1.2-0.7-2.1-1.5-3.1c-1.9-2.4-4-4.6-4.4-7.9c-0.1-0.9-1-1.8-1.7-2.5c-4.5-3.7-9.6-5.9-15.6-6
	c-3,0-4,1.4-3.6,4.2c0.3,1.8,1,3.2,2.4,4.3c1.1,0.8,2.2,1.6,3.4,2.4c1,0.7,1.9,1.6,1.5,3c-0.3,1.1-1.3,1.5-2.4,1.6
	C299.5,416.2,297.6,419.2,295,423.1z"/>
<path class="st8" d="M505,328.4c2.9,1.2,5.5,1,8.1,1c4.3,0,8.6-0.7,12.7-2c3.8-1.2,7.3-3.2,10-6.1c3.8-4.1,5.9-8.7,4.4-14.4
	c-0.6-2.3-0.9-4.7-1.8-6.9c-0.8-1.8-2-3.5-3.4-5c-2-2.2-4.8-2.6-7.6-1.9c-0.8,0.2-1.6,0.7-2.1,1.3c-0.8,1-1.6,2.2-2.1,3.5
	c-4,10.6-9.4,20.4-17.2,28.8C505.7,327,505.6,327.5,505,328.4z"/>
<path class="st8" d="M484.4,454.4c1.8-0.6,1.9-2,2.3-3.3c0.7-2.9,1.5-3.9,2.8-3.5c2.2,0.6,1.9,2.5,2,4.2c0.1,1.5,0.2,3.1,0.4,4.6
	c0.1,0.8,0.7,1.5,1.1,2.1c2.1,0.4,3.1-0.8,3.8-2.2c0.7-1.3,1.1-2.9,1.8-4.2c0.4-0.6,1.3-1.3,1.9-1.3c0.7,0,1.6,0.6,2.1,1.2
	c0.6,0.8,0.8,1.9,1.4,2.7c1,1.2,2.1,2.2,3.3,3.1c0.4,0.3,1.4,0.3,1.9,0c1-0.4,1-1.4,0.7-2.2c-0.9-2.4-1.8-4.7-2.9-7.1
	c-0.5-1.2-1.3-2.4-1.8-3.7c-0.5-1.5,1-3.3,2.6-2.9c1.5,0.4,2.9,1,4.3,1.6c1.7,0.7,3.4,1.7,5.2,2.3c1,0.4,2.3,0.2,3.8,0.3
	c-0.8-3.4-2.6-5.6-5-7.3c-0.8-0.5-1.9-0.7-2.9-0.9c-1-0.2-2.1-0.2-3-0.4c-1.1-0.3-1.8-1.1-1.6-2.2c0.1-1.2,1-1.8,2.1-1.9
	c1-0.1,2.1-0.1,3.1-0.1c4.4-0.1,7.4-2.4,9.5-6c0.9-1.5,0.1-3-1.7-3.4c-0.2,0-0.3-0.1-0.5-0.1c-8.8-0.1-17.1,1.5-24.6,6.5
	c-3.7,2.4-6.4,5.6-8.4,9.4c-1.4,2.7-2.8,5.4-4.3,8.1c-0.8,1.6-0.9,3.3-0.4,5C483.5,453.4,484.1,453.9,484.4,454.4z"/>
<path class="st8" d="M346.9,294.2c-0.5-5-0.9-9.9-1.4-14.8c-0.1-1.2-0.5-2.3-0.9-3.4c-2.7-7.3-2.6-14.6-0.4-22
	c0.3-1.1,0.6-2.3,0.6-3.4c0-3.4-1.8-5.3-5.3-5.5c-2.9-0.2-5.4,0.7-7.6,2.6c-3.9,3.5-5.9,7.9-5.6,13.2c0.3,5.1,1.4,10.1,4,14.6
	c3.9,6.7,8.7,12.6,14.2,18c0.4,0.4,0.8,0.6,1.3,0.9C345.9,294.4,346.1,294.3,346.9,294.2z"/>
<path class="st9" d="M500,332.5c2.9,0.6,5.1,1,7.2,1.5c2.2,0.5,4.4,1.2,5.7,3.2c3.7,5.9,7.5,11.8,11,17.8c1.3,2.3,2.2,5,2.7,7.6
	c1,5.5-1.3,8-7.1,7.6c-1.7-0.1-3.4-0.7-4.9-1.4c-1.9-0.9-3.5-2.1-5.3-3.2c-1.2-0.7-2.2-1.6-3.4-2.3c-2.4-1.3-4-0.6-4.5,2
	c-0.2,1.3-0.2,2.7-0.5,4c-0.7,2.4-1.3,5-2.4,7.2c-2.6,5.4-4.6,3.9-7.2,1.2c-1.3-1.3-2.6-2.7-4.1-3.8c-2.1-1.5-4.3-1.2-6,0.7
	c-1,1.2-1.8,2.5-2.6,3.8c-0.7,1.1-1.4,2.4-2.1,3.5c-1.6,2.3-3.9,3.4-6.7,2.8c-4.8-0.9-8.8-2.9-10.7-7.7c-0.6-1.4-1-2.9-1.4-4.4
	c-1-3.9-1.9-7.9-2.8-11.9c-0.2-0.8-0.1-1.6-0.1-2.7C471.3,352.2,486.7,344.1,500,332.5z"/>
<path class="st9" d="M323.9,330.2c0.1-1.5,0.4-3.1,1.1-4.4c0.9-1.8,2-3.6,3.4-5c4.3-4.2,8.7-8.2,13.2-12.2c1.9-1.7,4.1-3.1,7-4
	c1.3,3.1,2.3,5.8,3.5,8.5c5.2,11.3,11.4,22,20.3,31c3.1,3.1,3.2,4.9,1,8.6c-3.2,5.2-7.8,8.7-13.5,10.5c-5.9,1.9-10.1-0.1-12.3-5.8
	c-1.1-2.7-2.7-3.7-5.5-3.5c-0.9,0.1-1.7,0.1-2.6,0c-3.8-0.3-5.3-2.3-4.3-5.8c0.4-1.3,1.1-2.5,1.7-3.7s1.5-2.3,2-3.5
	c0.8-1.8-0.2-3.6-2.1-3.7c-1.2-0.1-2.4,0.1-3.6,0c-1.5-0.1-3.1-0.2-4.6-0.6C325.2,335.7,323.7,333.6,323.9,330.2z"/>
<path class="st9" d="M355.9,237.8c-0.7,0.6-1.6,1-3,2c1.5-6.1,3.2-11.2,5.4-16.1c5.5-12.2,13.9-22.2,23.8-31.2
	c6.6-6,14-10.4,22.4-13.4c6.7-2.4,13.6-3.7,20.6-4.5c6.6-0.7,13.1-0.4,19.5,1.3c7.3,1.9,14.6,3.9,21.7,6.6
	c9.5,3.6,17.9,8.6,24.8,16.2c1.6,1.8,3.1,3.9,5.1,5c3.4,1.9,5.3,4.7,7.3,7.7c4.6,6.8,8.4,14.1,11.6,21.6c5.8,13.5,8.7,27.5,8.1,42.2
	c-0.2,4.7-0.8,9.4-2.3,13.8c-4.6,0.7-8.5-0.5-11.9-2.4c-0.9-5.5-1.7-10.7-2.6-15.9c-1.1-6.4-3.9-11.9-9.1-16.1
	c-6.2-5-13.1-8-21.1-8.6c-1.2-0.1-2.4-0.2-3.5-0.3c-1.6-4.6-1.6-5.8-0.4-10.6c0.8-3.1,0.3-3.9-2.9-4.6c-2.2-0.5-4.4-0.7-6.6-1.2
	c-5.3-1.2-9.3-4.2-12-8.9c-2.4-4.2-3.8-8.7-4.7-13.4c-0.9-5.2-1.7-10.4-1.8-15.7c0-1.2-0.2-2.4-0.6-3.5c-0.4-1.4-2.4-1.9-3.4-0.9
	c-1.4,1.3-2.7,2.5-3.4,4.4c-1.4,3.5-2.9,6.9-4.6,10.2c-7.4,13.8-18.1,23.9-33.6,28.5c-4,1.2-7.9,2.3-12.1,1.1c-1-0.3-2-0.3-3.1-0.4
	C373.4,229.5,363.9,231,355.9,237.8z"/>
<path class="st9" d="M474.1,251c0.3-0.1,0.6-0.4,0.9-0.4c10.2,0.3,17.9,5,23.9,12.8c0.5,0.7,0.8,1.5,1.1,2.3
	c2.1,5.6,2.7,11.5,3.7,17.8C490.2,279,474.5,261.5,474.1,251z"/>
<path class="st9" d="M354.4,247.3c4.3-8.9,18.3-14.6,28.7-11.2c-0.9,1.3-1.9,2.5-2.7,3.7c-2.5,3.4-5.9,5.5-10.1,6.6
	C365.2,247.6,360.1,247.3,354.4,247.3z"/>
<path class="st10" d="M411.1,538.5c8.3,2.2,19.9-0.5,25.4-5.8c0-1.4-1-2.1-2.2-2.4c-5.1-1.2-10.2-1.4-15.4-0.5
	c-2.2,0.4-4.2,1.4-5.9,3C411.5,534.3,410.6,536,411.1,538.5z"/>
<path class="st10" d="M316.3,503.8c1.1-1.3,1.2-2.4,0.6-3.5c-3-5.7-6.4-11.2-11.2-15.5c-1.5-1.3-3.1-2.6-5.6-2.4
	c-0.2,1-0.7,2-0.6,2.9c0.2,1.7,0.5,3.4,1.1,4.9C302.7,495.8,309.7,501.8,316.3,503.8z"/>
<path class="st8" d="M449.5,383.8c-0.1-0.2-0.3-0.4-0.4-0.6c0,0.1,0,0.2,0.1,0.3c0.1,0.1,0.3,0.1,0.4,0.2
	C449.6,383.6,449.5,383.8,449.5,383.8z"/>
<path class="st11" d="M382.8,390.7c4.6,0,9.9-6.9,9.2-10.9c-0.6-3.1-1.7-5.8-4.1-8c-2.1-2-4.1-1.8-5.4,0.7
	c-2.2,4.2-4.3,8.5-6.3,12.8c-0.9,1.9-0.3,3.3,1.7,4.1C379.5,390,381.2,390.2,382.8,390.7z"/>
<path class="st11" d="M355.1,442.3c2.2,2.7,4.8,3.3,7.9,1.9c0.9-0.4,1.8-0.9,2.7-1.5c5.9-3.8,6.3-10.1,1.1-14.9
	c-2.7-2.4-6.1-1.8-7.5,1.5C357.6,433.6,356.1,437.9,355.1,442.3z"/>
<path class="st11" d="M461.2,453.1c-0.8-3.8-1.5-7.4-2.4-11c-0.8-3.6-5-5.5-8.5-4c-3,1.3-4.2,3.8-4.6,6.8c-0.4,2.9,0.6,5.3,3.2,6.9
	C452.7,454.3,456.7,454.7,461.2,453.1z"/>
<path class="st11" d="M397,471.2c7.2,1.4,14.1,1.7,21.2,1.3c-0.8-5.7-4.8-9.9-9.8-10.5c-1.1-0.1-2.4,0.1-3.5,0.5
	C401.1,463.8,399.3,465.8,397,471.2z"/>
<path class="st11" d="M443.4,380.5c-1.4,0.8-2.4,1.1-3.1,1.7c-1.7,1.5-2.7,3.4-3.2,5.7c-1.5,7.1,1.5,11.5,8.7,12.7
	c1.3,0.2,2.3-0.8,2-2.2c-0.9-4-1.9-7.9-2.9-11.8C444.6,384.8,444.1,383,443.4,380.5z"/>
<path class="st11" d="M407.2,362.6c1.4,3.6,3.3,5.8,6.7,6c1.2,0.1,2.7-0.5,3.8-1.1c1.3-0.7,2.4-1.8,2.5-3.8
	C416,363.5,411.9,362.9,407.2,362.6z"/>
<path class="st11" d="M417,418.9c-0.5-1.8-0.8-3.7-1.5-5.3c-2.2-4.8-7.7-6.1-12.1-3c-2.2,1.5-3.7,3.6-4.3,6.1
	c-1.8,7.1,4.8,13.6,12.1,12c1.2-0.3,2.5-1.2,3.3-2.2C416.5,424.5,416.9,421.8,417,418.9z"/>
<path class="st12" d="M432.5,313.4c-3-1.5-5.8-2-8.8-2.3c-4.8-0.4-9.5-1.2-14.3-1.8c-1-0.1-2-0.1-3.3-0.1c0,1.1-0.1,1.9,0.1,2.6
	c0.9,4.3,1.7,8.6,2.7,12.9c1,3.9,3.6,6,7.7,6.4c8.4,0.8,11.6-2,14.2-8.1C432.1,320,432.9,316.9,432.5,313.4z"/>
<path class="st13" d="M350.7,286.7c-0.3-8,5-15.4,13.4-15.5c7.9-0.1,14.4,7.1,16.1,14.4c1.3,5.4-0.1,11.2-3.7,14.8
	c-4.3,6-12.8,6-18.3,1.3C353.5,298.4,350.9,292.2,350.7,286.7z"/>
<path class="st13" d="M466.1,303.3c4.2-8.6,13.8-10.1,21.7-6.1c7.5,3.8,11,12.2,9.7,20.3c-1.1,7.2-7.6,11.1-14.1,12.1
	c-4.8,0.7-10.6-1.4-13.8-5.1c-0.6-0.6-1.1-1.3-1.5-2C464.3,317.1,463.2,309.2,466.1,303.3z"/>
<path class="st14" d="M449.5,383.8c0.7,0.9,1.6,1.6,2.2,2.6c3.9,6.6,8.4,12.9,13.3,18.8c4.8,5.8,9.6,11.6,14.5,17.3
	c2.5,2.9,5.4,5.7,8.3,8.8c-1.1,2-2.3,4-3.4,6.1c-1.6,3-3.3,6-4.7,9c-1.5,3.3-1.3,6.6,0.3,9.8c1.6,3.2,2.7,3.7,6.6,2.9
	c0.3-0.1,0.7,0,1.1,0c0.6,0.7,1.1,1.6,1.8,2.3c2.2,2.3,4.8,2.6,7.4,0.9c1.4-0.9,2.6-2.1,4-3.3c1.2,0.8,2.2,1.7,3.4,2.3
	c1.4,0.6,2.9,1.2,4.4,1.3c3.6,0.2,5.8-2,5.7-5.6c0-1.2-0.1-2.4-0.4-3.5c-0.2-1.1-0.6-2.2-1-3.6c1.7-0.6,2.8,0.3,4.1,0.6
	c2.1,0.4,4.1,0.7,6.1-0.1c1.6-0.7,2.4-1.8,2.4-3.5c0.1-2.3-0.8-4.3-2-6.2c-0.9-1.4-1.9-2.7-3-4.3c1-0.9,2-1.5,2.8-2.4
	c1.4-1.5,2.8-3,3.8-4.8c2.4-4.4,0.2-8.7-4.7-9.6c-2-0.3-4.1-0.3-6.2-0.2c-8.5,0.7-16.7,2.7-23.6,7.9c-2.5-0.2-4.2-1.6-5.7-3.2
	c-2.1-2.3-4.2-4.5-6.2-6.9c-6.5-7.9-13.1-15.8-19.2-24c-3.6-4.9-6.6-10.3-9.6-15.7c-2.8-5.2-5.3-10.6-8-16.2
	c1.7-0.5,3.3-0.9,4.8-1.3c1.4,1.6,1.7,3.3,2.1,4.9c0.8,3.3,1.5,6.6,2.3,9.9c0.8,3.2,1.9,6.2,4.2,8.7c3.5,3.9,8.1,5.7,13.3,6.1
	c3.1,0.2,5.8-1,7.9-3.3c1.1-1.3,2.1-2.7,3-4.1c0.9-1.3,1.6-2.6,2.6-4.2c1,0.7,1.8,1.2,2.5,1.8c1.2,1,2.2,2.2,3.4,3.2
	c3.4,2.8,7.1,2.5,10-0.8c2-2.2,3.2-4.8,4.1-7.6c0.5-1.6,0.9-3.3,1.5-5.3c0.8,0.3,1.6,0.5,2.3,0.9c1.8,1,3.5,2.1,5.4,3
	c3.7,1.8,7.6,1.9,11.6,0.7c4.3-1.4,6.5-4.3,6.5-8.8c0-4.3-1.3-8.4-3.5-12.1c-2.2-3.8-4.7-7.5-7-11.3c-1.4-2.3-3.1-4.5-4-7.2
	c2.5-1.1,4.9-1.2,7.2-1.8c5.1-1.2,9.8-3.3,13.7-6.8c5.7-5.1,8.7-11.4,7.3-19.1c-0.4-2.5-0.9-5-1.7-7.4c-2.8-8.1-7.4-11.4-16.4-11.6
	c-0.1-0.9-0.3-1.9-0.2-2.8c3.4-19.1-0.2-37.2-7.6-54.7c-3.1-7.4-7-14.4-11.3-21.1c-3.2-4.9-7-9.3-11.5-13.1
	c-7-6-14.4-11.7-22.9-15.7c-1.7-0.8-3.4-1.5-5.2-2.2c-1.3-0.5-2.7-0.8-3.9-1.4c-5.9-2.9-12.4-4-18.7-5.7c-9.2-2.4-18.4-2.2-27.7-0.5
	c-6.3,1.1-12.4,2.7-18.4,5.1c-6.8,2.7-12.9,6.3-18.5,11.1c-11.5,9.8-21.1,21-27.3,34.8c-2.6,5.8-4.3,11.8-6.1,17.9
	c-0.3,0.9-0.6,1.9-1.1,3.1c-1-0.5-1.8-0.9-2.5-1.2c-5.9-2.4-11.2-1.3-15.8,2.9c-5,4.5-7.4,10.1-7,16.8c0.3,6.6,2.1,12.7,5.6,18.3
	c4.1,6.5,8.9,12.5,14.5,17.9c1.1,1,2.2,2.1,3.5,3.4c-0.9,0.7-1.5,1.2-2.2,1.6c-6.8,4.4-12.7,9.9-18.2,15.9c-2.7,3-4.5,6.4-5.3,10.3
	c-1.1,4.9,1.4,10.6,7.9,12.5c0.8,0.2,1.7,0.3,2.5,0.5s1.6,0.4,2.7,0.6c-0.6,1.7-1.3,3-1.7,4.4c-2.1,6.5,1.2,11.2,8,11.7
	c1.2,0.1,2.4,0.2,3.8,0.2c0.6,1.2,1.2,2.4,1.8,3.6c1.8,3.2,4.6,5,8.2,5.6c3.8,0.6,7.5,0.3,11.1-1.3c6.5-3,11.6-7.3,14.6-13.8
	c0.3-0.6,0.6-1.2,1-1.9c0.7,0.3,1.4,0.6,1.9,0.9c1.1,0.7,2.2,1.6,3.5,2.6c-0.7,1.1-1.2,2.2-1.9,3.1c-8.4,10.6-16.6,21.3-25.2,31.8
	c-6.1,7.5-13,14.1-21.7,18.6c-2.3,1.2-4.7,2.2-7,3.2c-2.1,0.8-3.1,0.4-4.1-1.7c-0.2-0.3-0.3-0.6-0.4-0.9c-1.5-4.3-4.7-7-8.7-8.9
	c-3.7-1.8-7.5-3.4-11.8-3.6c-0.5,0-1-0.2-1.5-0.2c-6.1,0-9.6,4.3-8.2,10.1c0.3,1.3,0.9,2.6,1.5,3.8c0.5,1,1.3,1.9,2.4,3.3
	c-1.2,1.1-2.6,2.2-3.7,3.4c-1.1,1.3-2.2,2.6-3,4.1c-1.3,2.5-0.6,4.6,1.7,6.2c0.8,0.6,1.8,1,3,1.6c-0.5,1-1,1.8-1.4,2.7
	c-2.2,5,0.2,8.6,5.6,8.5c1,0,2-0.2,3-0.3c0.4,0.3,0.7,0.4,0.8,0.7c2.1,4.1,3.9,5.3,8.1,4.4c2.5-0.5,4.6-0.3,6.9,0.9
	c1.3,0.7,3,0.9,4.5,0.9c3.8,0.1,6.3-1.7,7.2-5.4c1-4.3,1.7-8.6,0.6-13.1c-0.9-3.8-1.3-7.7-2-11.7c1.7-0.8,3.2-1.6,4.8-2.3
	c7.7-3.4,14.2-8.3,20.1-14.1c5.5-5.5,10.1-11.6,14.9-17.6c2.1-2.7,4.2-5.3,6.4-8c1,1.1,0.1,1.9-0.2,2.5
	c-7.5,14.2-12.4,29.5-18.1,44.4c-3.4,8.9-6.3,17.9-9.2,27c-1.2,3.6-1.4,7.3-0.7,11.1c0.8,4.4,3.4,7.3,7.8,8.6
	c1.8,0.5,3.6,0.9,5.9,1.5c-0.9,1.4-1.5,2.6-2.3,3.7c-3.2,4.2-6.5,8.4-9.8,12.5c-5.2,6.5-11.3,11.9-19,15.4c-2.3,1.1-4.6,2.2-7.4,2.2
	c-2.4-7.3-6.7-13.4-11.5-19.1c-1.5-1.8-3.6-3.1-5.5-4.5c-0.5-0.4-1.2-0.7-1.9-0.9c-4.8-1.3-8.4-0.3-8.9,5.8
	c-0.3,3.1,0.4,6.1,1.9,8.8c3.6,6.7,9,11.5,16,14.7c2.2,1,4.5,0.9,7,0.6c11.6-1.5,20.6-7.3,28.5-15.3c2.7-2.8,5.2-5.9,7.7-8.9
	c2.4-2.9,4.6-5.9,6.9-8.9c1.2-1.6,2.3-3.3,3.4-5.1c9.9,1.9,19.9,3.9,29.8,5.8c9.8,2,19.9,1,30,1.7c1.9,16,2.6,32,7.9,47.1
	c-2.2,1.2-3.9,0.5-5.5,0.4c-3.6-0.2-7.2-0.3-10.8,0.6c-3.3,0.8-6.1,2.4-8.4,4.8c-2.1,2.2-3,4.9-2.7,8c0.2,2.5,1.5,4.1,3.9,4.9
	c1.3,0.4,2.7,0.7,4.1,0.8c8.7,0.4,16.7-2,24.1-6.5c2.4-1.5,4.3-3.5,4.9-6.3c0.3-1.6,0-2.8-1.5-3.3c-2.1-0.7-2.9-2.1-3.5-4
	c-2.3-7.7-4.2-15.4-5.1-23.4c-0.9-7.6-1.6-15.2-2.4-23c1.2-0.2,2.4-0.5,3.6-0.6c6.5-0.5,13.1-1,19.6-1.5c3.8-0.3,7.5-1.1,10.9-2.9
	c3.7-1.9,4.5-3.4,3.6-7.4c-3.2-14.3-6.3-28.5-9.7-42.7c-2.7-11.2-5.7-22.4-8.5-33.6c-0.4-1.6-0.4-3.3-0.6-5
	c-0.1-0.1-0.3-0.1-0.4-0.2s-0.1-0.2-0.1-0.3C449.2,383.3,449.3,383.6,449.5,383.8z M472.7,245.5c-1.6-4.6-1.6-5.8-0.4-10.6
	c0.8-3.1,0.3-3.9-2.9-4.6c-2.2-0.5-4.4-0.7-6.6-1.2c-5.3-1.2-9.3-4.2-12-8.9c-2.4-4.2-3.8-8.7-4.7-13.4c-1-5.2-1.7-10.4-1.8-15.7
	c0-1.2-0.2-2.4-0.6-3.5c-0.4-1.4-2.4-1.9-3.4-0.9c-1.4,1.3-2.7,2.5-3.4,4.4c-1.4,3.5-2.9,6.9-4.6,10.2
	c-7.4,13.8-18.1,23.9-33.6,28.5c-4,1.2-7.9,2.3-12.1,1.1c-1-0.3-2-0.3-3.1-0.4c-10.1-1-19.6,0.5-27.7,7.3c-0.7,0.6-1.6,1-3,2
	c1.5-6.1,3.2-11.2,5.4-16.1c5.5-12.2,13.9-22.2,23.8-31.2c6.6-6,14-10.4,22.4-13.4c6.7-2.4,13.6-3.7,20.6-4.5
	c6.6-0.7,13.1-0.4,19.5,1.3c7.3,1.9,14.6,3.9,21.7,6.6c9.5,3.6,17.9,8.6,24.8,16.2c1.6,1.8,3.1,3.9,5.1,5c3.4,1.9,5.3,4.7,7.3,7.7
	c4.6,6.8,8.4,14.1,11.6,21.6c5.8,13.5,8.7,27.5,8.1,42.2c-0.2,4.7-0.8,9.4-2.3,13.8c-4.6,0.7-8.5-0.5-11.9-2.4
	c-0.9-5.5-1.7-10.7-2.6-15.9c-1.1-6.4-3.9-11.9-9.1-16.1c-6.2-5-13.1-8-21.1-8.6C475,245.7,473.8,245.6,472.7,245.5z M353.4,447.5
	c1,0.4,1.6,0.7,2.2,0.9c3.6,1.6,7.1,1.1,10.4-0.7c1.8-1,3.4-2.3,5-3.6c3.6-2.9,4.6-6.8,3.5-11c-1.4-5.5-4.1-10.1-10.5-11.2
	c-0.6-0.1-1.1-0.5-1.8-0.8c1.9-5,3.6-9.8,5.4-14.6c1.8-4.7,3.1-9.6,5.9-14.1c1.5,0.6,2.7,1.3,4,1.7c2.7,0.8,5.3,1.3,8.1,0.5
	c7.6-2.1,12.6-10.6,10.4-18c-1.1-3.8-3.3-7.1-6.6-9.5c-0.8-0.6-1.7-1.1-2.9-1.8c1.6-2.5,2.1-5.4,3.9-7.9c3.8,1.4,7.5,2.7,11.4,4
	c0.3,0.9,0.7,1.8,1,2.8c0.9,2.9,2.8,5,5.2,6.8c3.5,2.7,7.6,3,11.6,0.8c2-1.1,3.4-2.8,4.7-4.6c0.9-1.2,1.7-2.5,2.5-3.8
	c4.1-0.2,7.9-1.1,12.1-0.7c2,4.3,3,8.6,3.3,13c-1.9,1.3-3.8,2.3-5.2,3.7c-3.8,3.5-4.8,8.1-4.7,13c0,4.1,1.9,7.1,5.2,9.4
	c2.6,1.8,5.5,2.8,8.5,3.5c1.3,0.3,2.6,0.6,3.8,0.9c2.9,8.7,6.3,22.9,6.4,27c-0.8,0-1.7,0.1-2.5,0.1c-4.7-0.4-7.9,1.9-10.4,5.5
	c-3.9,5.6-2.4,13.2,3.3,17c3.6,2.4,7.6,3.1,11.8,2.9c1.3-0.1,2.7-0.7,4.1,0.6c0.5,2.6,1.8,5.3,1.4,8.1c-1.5,1.6-3.3,2.1-5.1,2.6
	c-2.2,0.5-4.4,1-6.6,1.1c-8.6,0.6-17.2,1-25.8,1.4c-1,0-2-0.3-2.9-0.4c-0.4-1.4-0.7-2.5-1.1-3.6c-1.3-3.2-3.3-5.9-6.2-8
	c-5.4-3.8-10.9-4.1-16.3-0.3c-1.9,1.4-3.5,3.2-5.1,5c-1.3,1.5-2.3,3.3-3.6,5.2c-5.9-1.2-11.7-2.5-17.6-3.7c-5.1-1-10.1-2-15.2-3.1
	c-4.8-1-6.4-2.9-6.6-7.7C351.5,453.1,351.9,450.5,353.4,447.5z M435.8,276.3c0.1,0.9,0.3,1.4,0.2,1.9c-0.8,5.1-0.1,10.1,0.7,15.2
	c2.8,18.2,22.4,34.4,46.9,25.5c10.9-5.3,19.2-13.1,23.7-24.4c0.3-0.9,0.9-1.7,1.3-2.5c3.6,0.9,7,1.8,10.4,2.7
	c-0.1,0.8-0.1,1.4-0.4,2.1c-4.9,13.4-12.6,24.8-23.8,34c-9.3,7.7-19.6,13.8-30.7,18.7c-15.9,7.1-32.4,10.4-49.8,9.1
	c-15.4-1.2-28.5-7.3-39.2-18.3c-7.2-7.5-12.4-16.2-17-25.4c-3.8-7.4-5.8-15.2-6.4-23.4c-0.1-0.7-0.4-1.7,0.8-2
	c1.6,1.8,3,3.8,4.8,5.3c10.3,9.2,27.9,10.9,38.7,2.5c1.5-1.2,3-2.2,4.6-3.3c2.9-2,5-4.6,6.6-7.7c1.4-2.7,2.5-5.6,3.7-8.4
	c0.8-1.9,1.4-3.8,2.2-5.8C421.5,270,428.5,273.8,435.8,276.3z M351.1,252.2c4.7,0,9,0.1,13.3-0.1c8.2-0.5,15.5-3,20.4-10.1
	c1-1.4,2.2-2.6,3.4-3.8c1.1-1.3,2.6-1.6,4.2-1.1c4,1.3,7.7,2.9,10.8,5.7c2.5,2.2,4.3,4.8,5.1,8c1.4,5,1.7,10,0.8,15.1
	c-0.8,4.9-2.5,9.5-4.3,14.1c-1.8,4.3-4,8.3-8.3,10.7c-0.6,0.3-1.1,0.8-1.6,1.3c-4.8,4.1-10.4,5.7-16.7,5.8c-3.6,0.1-6.9-0.8-9.9-2.4
	c-10.1-5.6-17.7-13.3-20.1-25C347.1,263.9,346.7,257.8,351.1,252.2z M468.2,251.4c0.5,1.3,0.9,2.5,1.5,3.7c1.3,2.8,2.5,5.6,4,8.3
	c5.2,9.1,12.4,16.2,21.4,21.6c2.6,1.6,5.3,3.1,7.8,4.5c-0.2,4-0.8,5.7-3.1,9.2c-3.4,5-7.6,9.2-12.6,12.7c-3.6,2.5-7.6,4-11.9,4.7
	c-18.5,2.9-31.3-9.9-33.6-22.4c-0.5-3-0.9-6-1.1-9.1c-1.1-15.2,11.7-29.1,22.4-32.4C464.6,251.7,466.2,251.1,468.2,251.4z
	 M466.5,235c0.1,4,0.3,7.5,0.4,11.1c-14.7,3.1-23.4,12.6-29.5,25.3c-4-1.2-7.7-2.6-11.5-3.5s-7.7-1.4-11.7-2
	c0.5-4.5,0.4-8.9-0.4-13.3c-1.2-6.7-4.5-12-10.4-15.8c-0.9-0.6-1.8-1.3-3.1-2.3c2.3-0.9,4-1.6,5.7-2.3c8.7-3.6,16.3-8.8,22.1-16.3
	c3.6-4.6,6.9-9.3,9.5-14.5c0.4-0.8,0.4-2.1,2.2-2c0.3,1.5,0.6,3.2,0.9,4.8c1,6.2,2.5,12.3,5.6,17.9c3.5,6.1,8.6,10,15.5,11.8
	C463.4,234.2,464.8,234.6,466.5,235z M500,332.5c2.9,0.6,5.1,1,7.2,1.5c2.2,0.5,4.4,1.2,5.7,3.2c3.7,5.9,7.5,11.8,11,17.8
	c1.3,2.3,2.2,5,2.7,7.6c1,5.5-1.3,8-7.1,7.6c-1.7-0.1-3.4-0.7-4.9-1.4c-1.9-0.9-3.5-2.1-5.3-3.2c-1.2-0.7-2.2-1.6-3.4-2.3
	c-2.4-1.3-4-0.6-4.5,2c-0.2,1.3-0.2,2.7-0.5,4c-0.7,2.4-1.3,5-2.4,7.2c-2.6,5.4-4.6,3.9-7.2,1.2c-1.3-1.3-2.6-2.7-4.1-3.8
	c-2.1-1.5-4.3-1.2-6,0.7c-1,1.2-1.8,2.5-2.6,3.8c-0.7,1.1-1.4,2.4-2.1,3.5c-1.6,2.3-3.9,3.4-6.7,2.8c-4.8-0.9-8.8-2.9-10.7-7.7
	c-0.6-1.4-1-2.9-1.4-4.4c-1-3.9-1.9-7.9-2.8-11.9c-0.2-0.8-0.1-1.6-0.1-2.7C471.3,352.2,486.7,344.1,500,332.5z M348.6,304.7
	c1.3,3.1,2.3,5.8,3.5,8.5c5.2,11.3,11.4,22,20.3,31c3.1,3.1,3.2,4.9,1,8.6c-3.2,5.2-7.8,8.7-13.5,10.5c-5.9,1.9-10.1-0.1-12.3-5.8
	c-1.1-2.7-2.7-3.7-5.5-3.5c-0.9,0.1-1.7,0.1-2.6,0c-3.8-0.3-5.3-2.3-4.3-5.8c0.4-1.3,1.1-2.5,1.7-3.7s1.5-2.3,2-3.5
	c0.8-1.8-0.2-3.6-2.1-3.7c-1.2-0.1-2.4,0.1-3.6,0c-1.5-0.1-3.1-0.2-4.6-0.6c-3.3-1-4.8-3.1-4.6-6.4c0.1-1.5,0.4-3.1,1.1-4.4
	c0.9-1.8,2-3.6,3.4-5c4.3-4.2,8.7-8.2,13.2-12.2C343.6,307,345.7,305.6,348.6,304.7z M295,423.1c2.6-3.9,4.4-6.8,8.6-7.3
	c1.1-0.1,2-0.5,2.4-1.6c0.4-1.4-0.4-2.2-1.5-3s-2.3-1.5-3.4-2.4c-1.4-1.1-2.2-2.6-2.4-4.3c-0.4-2.9,0.6-4.2,3.6-4.2
	c5.9,0,11.1,2.3,15.6,6c0.8,0.6,1.6,1.6,1.7,2.5c0.4,3.3,2.5,5.5,4.4,7.9c0.8,1,1.3,1.9,1.5,3.1c0.6,3.5,1.3,7,1.8,10.6
	c0.5,3.2,0,6.4-0.9,9.5c-0.2,0.6-0.7,1.2-1.2,1.5c-2.3,1.3-5.4-0.1-6-2.6c-0.3-1.4-0.4-2.8-2.1-3.1c-2-0.4-2.6,1.1-3.1,2.7
	s-1.8,1.9-3.3,1.8c-1.2,0-2-1-1.7-2c0.4-1.3,1.1-2.5,1.4-3.8c0.2-0.7-0.1-1.8-0.6-2.3s-1.6-0.6-2.3-0.4c-1.1,0.3-2.1,1.1-3.2,1.6
	c-1.2,0.6-2.5,1.2-3.8,1.7c-0.4,0.1-1.2-0.1-1.3-0.4c-0.2-0.5-0.4-1.4-0.1-1.8c0.5-0.9,1.3-1.6,2.1-2.2c0.8-0.7,1.7-1.1,2.5-1.8
	c1.5-1.1,2-2.3,1.5-3.5c-0.5-1.3-1.7-1.5-3-1.6C300.2,423.4,298.2,423.3,295,423.1z M505,328.4c0.6-0.9,0.7-1.4,1.1-1.8
	c7.8-8.4,13.2-18.2,17.2-28.8c0.5-1.2,1.2-2.4,2.1-3.5c0.5-0.6,1.3-1.2,2.1-1.3c2.8-0.7,5.6-0.4,7.6,1.9c1.4,1.5,2.6,3.2,3.4,5
	c0.9,2.2,1.2,4.6,1.8,6.9c1.5,5.7-0.6,10.4-4.4,14.4c-2.7,2.9-6.2,4.9-10,6.1c-4.1,1.3-8.4,2-12.7,2
	C510.5,329.5,507.9,329.6,505,328.4z M484.4,454.4c-0.3-0.5-0.9-1-1-1.6c-0.5-1.7-0.4-3.4,0.4-5c1.4-2.7,2.8-5.4,4.3-8.1
	c2-3.8,4.7-7,8.4-9.4c7.5-5,15.8-6.6,24.6-6.5c0.2,0,0.3,0,0.5,0.1c1.8,0.4,2.6,1.8,1.7,3.4c-2.1,3.6-5.1,5.9-9.5,6
	c-1,0-2.1,0-3.1,0.1c-1.1,0.2-1.9,0.8-2.1,1.9c-0.1,1.2,0.6,2,1.6,2.2c1,0.3,2,0.2,3,0.4c1,0.2,2.1,0.3,2.9,0.9
	c2.4,1.7,4.2,3.9,5,7.3c-1.5-0.1-2.7,0-3.8-0.3c-1.8-0.6-3.4-1.6-5.2-2.3c-1.4-0.6-2.9-1.2-4.3-1.6c-1.6-0.4-3.1,1.4-2.6,2.9
	c0.5,1.3,1.2,2.4,1.8,3.7c1,2.3,2,4.7,2.9,7.1c0.3,0.8,0.3,1.8-0.7,2.2c-0.6,0.2-1.5,0.3-1.9,0c-1.2-0.9-2.3-1.9-3.3-3.1
	c-0.6-0.8-0.8-1.9-1.4-2.7c-0.5-0.6-1.4-1.2-2.1-1.2s-1.6,0.7-1.9,1.3c-0.7,1.3-1.1,2.9-1.8,4.2c-0.7,1.4-1.7,2.6-3.8,2.2
	c-0.3-0.6-0.9-1.3-1.1-2.1c-0.3-1.5-0.3-3-0.4-4.6c-0.1-1.7,0.3-3.6-2-4.2c-1.3-0.4-2.1,0.6-2.8,3.5
	C486.3,452.4,486.2,453.8,484.4,454.4z M346.9,294.2c-0.8,0.1-1,0.2-1.1,0.2c-0.4-0.3-0.9-0.5-1.3-0.9c-5.5-5.4-10.3-11.4-14.2-18
	c-2.7-4.5-3.8-9.5-4-14.6c-0.3-5.2,1.7-9.6,5.6-13.2c2.2-1.9,4.7-2.8,7.6-2.6c3.5,0.2,5.3,2,5.3,5.5c0,1.1-0.3,2.3-0.6,3.4
	c-2.2,7.4-2.3,14.7,0.4,22c0.4,1.1,0.8,2.3,0.9,3.4C346,284.2,346.4,289.1,346.9,294.2z M503.7,283.6c-13.6-4.6-29.2-22.1-29.7-32.6
	c0.3-0.1,0.6-0.4,0.9-0.4c10.2,0.3,17.9,5,23.9,12.8c0.5,0.7,0.8,1.5,1.1,2.3C502.1,271.3,502.7,277.2,503.7,283.6z M382.8,390.6
	c-1.6-0.4-3.3-0.7-4.9-1.3c-2-0.8-2.6-2.2-1.7-4.1c2-4.3,4.1-8.6,6.3-12.8c1.3-2.5,3.3-2.7,5.4-0.7c2.3,2.2,3.5,4.9,4.1,8
	C392.7,383.8,387.5,390.6,382.8,390.6z M354.4,247.3c4.3-8.9,18.3-14.6,28.7-11.2c-0.9,1.3-1.9,2.5-2.7,3.7
	c-2.5,3.4-5.9,5.5-10.1,6.6C365.2,247.6,360.1,247.3,354.4,247.3z M355.1,442.3c1.1-4.5,2.5-8.8,4.2-13c1.3-3.3,4.8-3.9,7.5-1.5
	c5.2,4.8,4.7,11.1-1.1,14.9c-0.9,0.6-1.8,1.1-2.7,1.5C359.9,445.6,357.3,445,355.1,442.3z M461.2,453.1c-4.5,1.6-8.5,1.2-12.3-1.2
	c-2.6-1.7-3.6-4-3.2-6.9c0.4-3,1.7-5.5,4.6-6.8c3.4-1.5,7.6,0.4,8.5,4C459.7,445.7,460.4,449.3,461.2,453.1z M411.1,538.5
	c-0.6-2.5,0.4-4.2,1.9-5.7c1.6-1.6,3.6-2.7,5.9-3c5.1-0.9,10.3-0.7,15.4,0.5c1.2,0.3,2.2,1,2.2,2.4C431,538,419.4,540.7,411.1,538.5
	z M316.3,503.8c-6.6-2-13.6-8-15.9-13.7c-0.6-1.5-0.9-3.3-1.1-4.9c-0.1-0.9,0.4-1.9,0.6-2.9c2.6-0.2,4.1,1.1,5.6,2.4
	c4.9,4.4,8.3,9.8,11.2,15.5C317.5,501.4,317.4,502.5,316.3,503.8z M397,471.2c2.3-5.4,4.1-7.4,7.9-8.7c1.1-0.4,2.4-0.6,3.5-0.5
	c5,0.6,9,4.8,9.8,10.5C411.2,472.9,404.3,472.5,397,471.2z M443.4,380.5c0.7,2.5,1.2,4.3,1.6,6.1c1,3.9,2,7.9,2.9,11.8
	c0.3,1.4-0.8,2.4-2,2.2c-7.2-1.2-10.2-5.6-8.7-12.7c0.5-2.3,1.5-4.2,3.2-5.7C441,381.6,442,381.3,443.4,380.5z M407.2,362.6
	c4.6,0.3,8.8,0.9,13.1,1c-0.1,2-1.3,3.1-2.5,3.8c-1.1,0.6-2.6,1.2-3.8,1.1C410.5,368.4,408.7,366.2,407.2,362.6z"/>
<path class="st14" d="M394.1,420.9c0.2,2.4,1.1,5.1,3.2,7.3c3.8,4,8.5,5.6,14,5.1c3.6-0.3,5.8-2.5,7.8-5.3c3-4.4,3.1-14.8-2.1-20
	c-3.9-3.8-9.4-4.8-14.2-2.2C397.1,408.7,393.9,414.2,394.1,420.9z M417,418.9c-0.1,2.9-0.5,5.5-2.5,7.7c-0.9,0.9-2.1,1.9-3.3,2.2
	c-7.3,1.6-13.9-5-12.1-12c0.7-2.6,2.2-4.6,4.3-6.1c4.3-3.1,9.8-1.8,12.1,3C416.2,415.3,416.5,417.2,417,418.9z"/>
<path class="st14" d="M407.4,304.3c-1.2,0-1.4,0.1-1.6,0.1c-5.2,0.2-5.9,1.1-4.9,6.1c0.9,4.5,1.7,9,2.7,13.4
	c2.2,10.4,9.1,12.6,17.2,12.1c5.7-0.4,9.7-2.9,12.6-7.6c2.8-4.5,3.8-9.4,4.1-14.5c0.1-1.7-0.5-3.3-1.4-4.8c-0.9-1.4-2-2-3.8-2.1
	c-6.2-0.5-12.3-1.2-18.4-1.9C411.5,304.7,408.9,304.4,407.4,304.3z M432.5,313.4c0.4,3.5-0.4,6.6-1.7,9.6c-2.6,6.1-5.8,8.9-14.2,8.1
	c-4.1-0.4-6.7-2.5-7.7-6.4c-1-4.3-1.9-8.6-2.7-12.9c-0.2-0.8,0-1.6-0.1-2.6c1.3,0,2.3,0,3.3,0.1c4.8,0.6,9.5,1.4,14.3,1.8
	C426.7,311.4,429.5,311.9,432.5,313.4z"/>
<path class="st14" d="M376.6,265.3c0.3,4.1,2.8,6.6,6.3,6.7c3.7,0.1,6.7-2.2,7.2-5.8c0.1-1,0.1-2-0.1-3c-0.5-3.4-1.9-5.1-4.4-5.5
	c-3.1-0.5-5.8,0.2-7.6,3C376.9,262.2,376.5,263.9,376.6,265.3z"/>
<path class="st14" d="M456.9,283c0.2,4.6,3.4,7.6,7.9,7.5s8-3.3,7.8-7.1c-0.2-4.3-4.4-8.3-8.4-8.2
	C460.5,275.3,456.7,279.4,456.9,283z"/>
<path class="st15" d="M200.2,416.9c-1.5,0.7-3.1,1.4-4.6,2.1c-4,1.7-8.2,0.6-10.6-3c-0.8-1.2-1.3-2.5-1.9-3.8
	c-0.4-0.8-0.6-1.6-1-2.4c-0.7-1.5-2.3-1.9-3.6-0.8c-0.8,0.7-1.3,1.5-2.1,2.1c-3.2,2.6-8,2.4-10.9-0.7c-2.7-2.8-3.9-6.3-4-10.2
	c0-1.9,0.4-3.7,0.6-5.6c0.1-0.7,0.5-1.4,0.5-2.1s-0.1-1.5-0.6-1.9c-0.4-0.4-1.4-0.4-1.9-0.2c-1.1,0.4-2,1.1-3,1.6
	c-2.3,1.3-4.8,1.7-7.4,1.4c-5.1-0.6-7.8-3.4-7.6-8.6c0-1.7,0.5-3.4,0.9-5.1c0.1-0.6,0.5-1.1,0.5-1.6c0-0.6-0.3-1.4-0.7-1.9
	c-0.3-0.3-1.1-0.3-1.6-0.2c-0.7,0.2-1.2,0.7-1.8,1.1c-2.3,1.2-4.5,2.6-6.9,3.5c-6.9,2.5-12.4-1.2-12.7-8.7c-0.1-1.7,0.3-3.4,0.6-5.1
	c0.1-0.7,0.5-1.4,0.5-2.1c-0.1-0.6-0.5-1.5-0.9-1.7c-0.5-0.2-1.3,0-2,0.2c-0.3,0.1-0.5,0.6-0.8,1c-2.8,3.6-6.7,5.2-10.9,6.4
	c-0.3,0.1-0.6,0.1-0.8,0.2c-5.8,0.8-9.8-2.4-10.1-8.3c-0.1-2.7,0-5.5,0.8-8.1c0.3-1.1,0.5-2.2,0.6-3.4c0.1-1.5-1.5-2.3-2.7-1.5
	c-0.8,0.5-1.5,1.3-2.4,1.8c-1.8,1.1-3.6,2.3-5.5,3.3c-2,1-4.1,0.8-6.3,0.4c-3.2-0.7-5.1-2.6-5.4-6.8c-0.2-4.1,1.3-7.6,3.9-10.7
	c0.7-0.8,1.6-1.2,2.6-1.3c1.5-0.1,2.8-0.8,3.6-2c0.4-0.6,0.6-1.3,0.5-1.9c-0.1-1-1-1.5-1.9-1.5c-1,0-2,0.1-2.9,0.6
	c-1.5,0.8-2.9,1.1-4.4,0.2c-1.8-1.1-3-2.7-3.3-4.8c-0.5-3.9,0.3-7.4,3.3-10.3c2.9-2.8,6.3-4.5,10.2-4.9c3.1-0.4,6.2-0.3,9.4-0.4
	c0.6,0,1.1,0.1,1.7,0c1.4-0.2,2.4-1.4,1.9-2.7c-0.9-2.2-0.2-4,0.7-5.8c2.4-4.7,5.9-8.5,10.5-11.1c1.3-0.8,2.9-1.3,4.4-1.5
	c4.7-0.8,7.2,0.4,9.6,4.6c2.7,4.6,3.2,4.8,7.3,1.6c3.4-2.7,7.2-4,11.4-4.2c3.1-0.1,6.3-0.3,9.4,0.4c1.9,0.5,3.8,1.1,5.5,2.2
	c2.6,1.5,4.1,4,4,7.1c0,0.7-0.2,1.5,0,2.1s0.5,1.4,1,1.8c0.8,0.5,1.6,0.2,2.3-0.4c0.2-0.2,0.4-0.4,0.6-0.6c3.6-4.3,8.4-4.7,13.3-3.9
	c3.4,0.6,6.5,2.1,9.1,4.5c2.6,2.3,4,5.1,4,8.7c0,4.8,0.1,4.8,4.5,6.1c5.5,1.5,10.2,4.3,14.4,8.2c1.1,1.1,2.2,2.3,3,3.6
	c1.7,3,1.3,5.4-1.1,7.8c-0.5,0.5-1.1,0.9-1.6,1.4c-1.2,1.3-1,2.8,0.3,3.7c0.8,0.6,1.8,1,2.6,1.4c2.6,1.5,5.1,3.2,7.2,5.4
	c1,1,1.9,2.1,2.6,3.4c1.6,2.9,1.5,5.8-0.6,8.5c-0.7,0.9-1.5,1.7-2.3,2.6c-1.6,1.9-1.8,3.9-0.6,6c0.9,1.5,1.9,2.9,2.8,4.4
	c0.9,1.5,1.9,2.9,2.7,4.4c0.5,1,0.8,2.2,1,3.3c0.2,1.4-0.3,2.6-1.7,3.2c-1.2,0.5-2.4,0.9-3.6,1.3c-1.1,0.3-2.2,0.5-3.3,0.9
	c-2.6,1-3.4,3-2.1,5.5c0.5,1,1.2,1.9,1.9,2.9c0.8,1,1.6,2,2.4,3.1c2.8,4,2.7,6.9-0.4,10.5c-3.7,4.2-8.1,6.7-13.8,6.5
	c-1.1,0-2.3,0.2-3.4,0.1C202.2,417.7,201.3,417.2,200.2,416.9z"/>
<path class="st16" d="M76.7,357.9c5.1,1.9,9.9,1.2,14.9-1.8c0,2.4,0,3.9-0.1,5.4c-0.1,2.7,0.4,5.2,1.7,7.5c1.7,3.1,4.2,5,7.7,5.5
	s6.8,0,10-1.4c1.4-0.6,2.8-1.2,4.5-1.9c0.2,1,0.4,1.6,0.6,2.3c0.3,1.1,0.5,2.3,0.9,3.3c2.5,6.8,7.6,9.8,15.4,8
	c1.8-0.4,3.5-1.2,5.5-2c0.1,0.9,0.3,1.7,0.4,2.4c0.7,8.1,4.6,11.8,12.8,12c2.1,0,4.2-0.3,6.5-0.5c0.9,1,0.4,2.4,0.3,3.6
	c0,3.6,1,6.8,2.7,9.9c1.7,2.9,4,5.2,7.4,6.1c3,0.8,5.9,0.7,8.7-0.8c0.9-0.5,1.7-0.9,2.7-1.4c0.8,1.4,1.5,2.6,2.3,3.8
	c2.5,3.7,5.9,5.7,10.4,5.8c1.9,0.1,3.7-0.4,5.3-1.3c1-0.6,1.9-1.2,2.8-1.7c1,0.6,0.6,1.3,0.4,1.9c-2,5-4.6,9.6-7.6,14
	c-3.6,5.2-7.2,10.3-11.6,14.9c-6.6,6.9-14,12.7-22.8,16.6c-7.6,3.3-15.4,4.9-23.7,4.6c-7.7-0.3-15.4-1.2-22.9-2.9
	c-8.5-1.9-16.1-5.6-23.2-10.5c-7.3-5-12.7-11.5-17.3-18.8c-5.3-8.5-7.5-18-8.1-27.9c-0.7-11.1,0.4-22.2,3-33
	C68.1,371.8,71.8,364.1,76.7,357.9z M99.7,426.4c-0.1,4.2,0.3,8.4,1.3,12.4c1.6,6.4,7.8,12.2,14,13c7.5,1.1,13.6-1.4,17.5-8
	c2.5-4.2,4.5-8.6,6.4-13.1c1.4-3.3,0.5-5.1-2.7-6.6c-0.9-0.4-1.8-0.8-2.8-1.1c-2.7-0.9-5.5-1.7-8.2-2.5c-7.5-2.2-15.4-2.8-23.1-4.2
	c-0.5-0.1-1.5,0.7-1.5,1.1C100.2,420.4,100,423.4,99.7,426.4z M96.8,396.8c0-0.5-0.1-1.2-0.2-1.9c-0.3-2-1.3-3.6-3.2-4.2
	c-2.2-0.7-4.3-0.3-6,1.2c-2.3,1.9-3.2,7-1.8,9.6c1.1,1.9,2.7,2.9,4.9,2.7C93.9,403.8,96.6,400.7,96.8,396.8z M152.2,419.3
	c-0.4,3.3,2,7,4.6,7.3s6.1-2.2,6.4-4.6c0.5-3.3-1.8-6.6-4.8-7.1C155.3,414.4,152.6,416.3,152.2,419.3z"/>
<path class="st11" d="M175.2,575.5c-2.6,2-8.7,5.1-11.4,5.6c-2.3,0.5-3.6,0-4.6-2.1c-0.7-1.4-1.3-2.9-1.8-4.4
	c-0.6-1.9-1.1-3.9-1.7-5.8c-0.8-2.5-1.3-2.9-3.9-3.1c-0.7,0-1.4-0.1-2.1-0.1c-6.3,0.5-12.5-0.8-18.7-1.8c-3.4-0.5-6.8-1-10.1-1.5
	c-2.1-0.3-4.2-0.7-6.3-1.3c-1.7-0.5-3,0-3.8,1.7c-0.3,0.6-0.5,1.3-0.8,2c-2.1,4.6-4.2,9.2-6.4,13.7c-2,3.9-2.6,4.2-6.8,3
	c-3.8-1.1-7.5-2.5-11-3.7c-0.9-1.5-0.5-2.7-0.1-3.7c0.7-1.7,1.6-3.4,2.4-5.1c1.9-4,3.8-8,5.8-12.1c0.8-1.7,1.7-3.3,2.6-5.1
	c2.9,0.4,5.5,0.8,8.2,1.1c15.5,1.7,31,2.9,46.5,0.7c4.2-0.6,8.3-2,12.8-3.1c0.3,0.5,1,1.2,1.4,2c3.3,7.3,6.6,14.7,9.9,22
	C175.3,574.9,175.2,575.2,175.2,575.5z"/>
<path class="st17" d="M94.7,530.4c0-4.8,1-9.5,1.8-14.3c2.2-0.3,4,0.2,5.7,0.7c8.7,2.5,17.6,3.7,26.5,4c3,0.1,6,0.1,8.9-0.6
	c4.2-0.9,8.4-1.4,12.7-1.8c3.2-0.2,6.4-1,9.6-1.5c1.3,2.6,3.3,11.2,3.6,15.7c-10.9,4-22.2,4.6-33.6,3.3c-9.6-1.1-19.2-2.3-28.8-3.5
	C99,532.2,96.7,532.2,94.7,530.4z"/>
<path class="st18" d="M97.3,511.4c0.3-4.1,1-8.1,1.8-12.2c6.8,0.8,13.1,1.5,19.4,2.4s12.5,1,18.7,0c0.8-0.1,1.7-0.3,2.5-0.3
	c5.5-0.1,11.1-0.2,16.8-0.2c1.4,3.4,1.9,7.1,2.9,10.9c-0.7,0.5-1.3,1.1-2,1.4c-2.1,0.8-4.3,1.3-6.6,1.4c-3.8,0.3-7.7,0.6-11.4,1.4
	c-4.9,1.1-9.9,1.1-14.8,0.8c-8.8-0.6-17.4-2.6-26-4.8C98.2,511.9,97.8,511.7,97.3,511.4z"/>
<path class="st18" d="M93.1,546.9c-0.1-4.3,0.1-8,0.8-11.8c2,0.3,3.8,0.7,5.6,0.9c8.2,1.1,16.4,2.2,24.6,3.1
	c5.9,0.6,11.9,1.1,17.9,1.2c6,0.1,11.9-0.8,17.8-2.4c1.5-0.4,3-0.9,4.4-0.8c0.2,0.3,0.4,0.4,0.4,0.5c1.2,8.4,0.4,8.2-6.4,10.5
	c-2.8,1-5.8,1.5-8.7,1.9c-9.9,1.4-19.9,1.1-29.9,0.5c-7.4-0.5-14.8-1.2-22.1-2.5C96.1,547.8,94.8,547.4,93.1,546.9z"/>
<path class="st16" d="M246.2,431.2c0.9,1.7,0.4,3.1-0.1,4.4c-0.4,0.9-0.9,1.8-1.3,2.7c-0.3,0.9-0.3,1.8,0.5,2.3
	c0.5,0.3,1.4,0.4,2,0.2c1.3-0.5,2.6-1.2,3.9-1.7c0.8-0.3,1.6-0.4,2.4-0.5c1.2,0.9,0.9,1.9,0.5,2.8c-0.7,1.6-2,2.8-3.6,3.6
	c-0.9,0.5-1.8,0.9-2.7,1.4c-0.8,0.5-1.4,1.2-1.1,2.1c0.2,0.6,0.7,1.3,1.3,1.5c1.1,0.6,2.4,0.8,3.6,1.3c1,0.4,2.1,0.8,2.4,2.1
	c-1,1.5-2.6,1.2-3.9,1.6c-0.9,0.3-2,0.3-2.9,0.7c-1.2,0.4-1.6,1.8-0.9,2.9c0.5,0.8,1.2,1.6,1.7,2.4c0.3,0.5,0.4,1,0.6,1.5
	c-1.5,1.9-3.2,2.1-5.4,1.4c-3.8-1.2-7-3.2-9.6-6.2c-0.3-0.3-0.6-0.6-0.8-1c-3.2-6.3-6.3-12.6-5.3-20c0.3-1.9,0.8-3.7,1.7-5.3
	c0.3-0.6,0.9-1,1.4-1.6c2.7,1.3,3.6,3.7,4.5,6.2c0.3,0.9,0.4,2,0.8,2.9c0.5,1.1,2.2,1.2,2.8,0.1c0.4-0.7,0.6-1.6,1-2.4
	C241.1,433.6,242.7,432.2,246.2,431.2z"/>
<path class="st16" d="M21.4,397c3.2,1.1,6.5,4,8.5,7.3c0.4,0.7,0.7,1.6,1.1,2.3c0.4,0.8,1.1,1.3,2.1,1.2c1-0.2,1.3-1,1.4-1.9
	c0-0.9-0.1-1.7,0-2.6c0.4-3.2,3.4-5.7,6.6-5.7c1.1,0,2,0.7,2,1.8c0,1.7,0,3.5-0.5,5.1c-1.1,3.4-2.5,6.7-3.8,10
	c-0.6,1.6-1.5,3.1-3.2,3.8c-0.8,0.3-1.1,1.2-1.3,2.1c-1.3,5.3-6.3,9.3-11.7,9.5c-0.4,0-0.8-0.2-1.4-0.5c0.3-1,0.5-1.9,0.8-2.8
	c0.2-0.7,0.8-1.3,0.9-1.9s0.1-1.4-0.2-2c-0.4-0.9-1.4-0.9-2.3-0.7c-0.8,0.2-1.6,0.6-2.5,0.7c-1.7,0.2-3.4,0.2-4.9-0.8
	c-0.5-0.4-1.3-1.1-1.2-1.6c0.1-0.7,0.7-1.7,1.3-2c1.1-0.5,2.5-0.4,3.7-0.7c1.1-0.2,1.6-2,0.7-2.8c-0.4-0.4-1-0.6-1.4-0.9
	c-0.7-0.5-1.4-0.9-2.1-1.5c-0.8-0.7-1.3-1.6-0.8-2.7s1.2-2,2.5-2s2.5,0.2,3.8,0.5c0.8,0.2,1.6,0.7,2.3,1.1c0.9,0.5,1.7,0.4,2.3-0.3
	c0.7-0.7,0.6-1.5,0.2-2.4c-1-2-2-4.1-2.9-6.2C21,399.4,21.1,399.3,21.4,397z"/>
<path class="st17" d="M154.3,488.3c1.3,2.7,1.1,5.4,1.7,8.3c-0.9,0.3-1.7,0.8-2.5,0.8c-1.8,0.1-3.7,0-5.6,0.1
	c-4.3,0.2-8.5,0.4-12.8,0.7c-3.8,0.3-7.6,0.7-11.5,0.2c-5.8-0.7-11.6-1.3-17.4-2c-2.1-0.2-4.2-0.6-6.3-1.6c0-3,0.8-5.7,1.2-8.7
	c0.8,0,1.5-0.2,2.1,0c10.3,2.9,20.9,2.6,31.4,2.5c2.3,0,4.5,0,6.8,0.3c2.7,0.3,5.4,0.4,8.1-0.1C151.1,488.5,152.6,488.4,154.3,488.3
	z"/>
<path class="st18" d="M153.5,484.1c-3.4,1.1-6.6,1.4-9.9,1.2c-4-0.2-7.9-0.5-11.9-0.4c-7.4,0.1-14.8,0.1-22.1-1.3
	c-2.5-0.5-5-0.8-7.5-2.3c0.5-3.2,0.4-6.5,2-9.8c15.3,4.1,30.7,6.3,46.5,3.4C152,477.9,152.7,480.9,153.5,484.1z"/>
<path class="st16" d="M59.4,393.3c-2.4-0.7-3.5-2.7-4.6-4.8c-1.8-3.5-2.6-7.3-2.8-11.2c-0.2-3.2,0-6.3,0.9-9.4c0.6-2.1,1.5-4,3-5.6
	c1.4-1.5,3.1-1.9,5.1-1.3c3.7,1.2,5.8,4.9,4.4,8.5c-2.7,7-4.2,14.3-5.1,21.8c-0.1,0.4-0.2,0.8-0.3,1.2
	C60,392.7,59.7,392.9,59.4,393.3z"/>
<path class="st18" d="M38.7,594.7c0.2-0.9,0.2-1.8,0.5-2.6c1.3-4.7,3.5-9.1,6.2-13.2c1.1-1.6,2.6-2.2,4.4-2.2c1.4,0,2.5,0.4,3.1,1.8
	c0.4,0.9,0.9,1.8,1.4,2.7c0.7,1.2,0.8,2.4,0.5,3.7c-0.4,1.4-0.6,2.8-0.9,4.2c-1,4.6-3.7,8-7.4,10.7c-1.7,1.2-3.4,1.4-5.2,0.5
	c-1.8-1-2.5-2.7-2.5-4.7C38.6,595.2,38.6,594.9,38.7,594.7z"/>
<path class="st16" d="M194.2,441.9c2.2-3.7,4.2-6.7,5.9-9.8c1.7-3,3.1-6.1,4.7-9.2c2.6-0.2,4.9,0.2,7.2,1c2.9,1.1,3.9,3.1,3.1,6.2
	c-0.2,0.8-0.6,1.6-1,2.4c-1.1,1.9-2.5,3.5-4.3,4.7C205.3,440.3,200.4,441.7,194.2,441.9z"/>
<path class="st18" d="M211.8,587.2c1.7,1.6,3.2,3,4.8,4.5c2.4,2.2,3.4,4.9,3.3,8.1c-0.1,1.7-0.3,3.4-0.7,5.1
	c-0.2,0.9-0.9,1.7-1.6,2.5c-0.7,0.8-2,0.7-2.7,0c-0.6-0.6-1.2-1.3-1.5-2c-2.1-4.7-3.5-9.7-4.1-14.9
	C209.1,588.8,209.7,587.7,211.8,587.2z"/>
<path class="st19" d="M84.3,399.9c-6.4-3.4-14.7-2.1-18.8,4.2c-3,4.5-2.2,11.2,0.8,15.7c1.5,3.3,4.5,5.9,7.9,6.8
	c7.2,1.9,13.5-2.4,16.4-8.8C93.4,411.4,90.3,403.1,84.3,399.9z"/>
<path class="st19" d="M180.9,431.9c-2.1-4.9-6.6-7.3-11.5-7.5c-2.7-0.5-5.6-0.2-8.1,0.9c-7.9,3.3-9.2,13.4-4.4,19.8
	c4.3,5.8,12.8,8,19,3.8C181.4,445.3,183.7,438.1,180.9,431.9z"/>
<path class="st20" d="M69,362.6c1.6-2.6,2.9-4.8,4.1-6.8c-0.1-0.4-0.1-0.6-0.1-0.7c-3.6-5.4-2.8-10.9-0.1-16.4c0.5-1,1.1-2,1.7-3.1
	c-0.8-0.7-1.5-1.3-2.3-2c-2.3-2-3.5-4.5-3.7-7.5c-0.3-4.5,0.9-8.6,4-11.9c4.5-4.8,10.2-6.7,16.6-7c1.6-0.1,3.1,0.1,4.5,0.2
	c0.4-0.4,0.8-0.6,0.8-0.8c1.1-6.6,5-11.5,9.8-15.7c1-0.8,2-1.6,3.1-2.3c2.7-1.7,5.7-2.7,8.9-2.8c4-0.1,7.2,1.4,9.7,4.6
	c0.8,1,1.5,2.1,2.2,3.1c0.5-0.3,0.9-0.4,1.3-0.6c8.2-6.1,17.3-5.9,26.6-3.5c4,1.1,7,3.7,8.7,7.7c0.2,0.5,0.5,1,0.7,1.4
	c1.1,0.6,1.7-0.1,2.5-0.4c8.1-3.4,18.4-1,24.6,6.1c1.7,2,2.9,4.3,3.2,7c0.2,1.4,0.3,2.8,0.5,4.4c1.1,0.4,2.1,0.8,3.2,1.2
	c5.3,1.9,10.1,4.7,14.2,8.5c1.1,1,2,2,2.9,3.2c2.9,4.1,3,8.1,0.3,12.4c-0.2,0.4-0.5,0.7-0.8,1.3c0.7,0.6,1.4,1.3,2.2,1.8
	c2.6,1.6,4.9,3.5,6.9,5.8c1.3,1.5,2.4,3.2,3.2,5.1c1.4,3.7,0.9,7.4-1.5,10.6c-0.9,1.3-2,2.4-3.1,3.8c0.9,1.4,1.7,2.8,2.5,4.1
	c1.1,1.7,2.2,3.4,3.2,5.1c0.6,1.1,1.1,2.4,1.4,3.6c1.1,4.4-0.4,7.2-4.6,8.9c-1.2,0.5-2.5,0.7-3.7,1.1c-0.8,0.2-1.6,0.6-2.6,0.9
	c0.5,0.9,0.9,1.7,1.4,2.3c0.8,1,1.6,2,2.4,3.1c3.9,5.4,3.7,10.3-0.6,15.3c-1.8,2.1-3.9,3.8-6.3,5.2c-0.8,0.5-1.7,1-2.5,1.6
	c0.3,0.4,0.5,0.6,0.7,0.8c1.8,1.3,3.4,2.7,3.7,5c0.4,2.8,0.1,5.5-1.4,7.9c-2,3.5-4.8,6.1-8.3,7.8c-4.4,2.2-9,3.6-14,3.5
	c-1.1,0-2.3-0.1-3.6-0.1c-0.8,0.9-1.7,1.9-2.5,2.8c-7.5,9.4-16.5,17.1-27.3,22.5c-0.2,0.1-0.4,0.4-0.9,0.8c0.6,0.4,1,0.9,1.6,1.1
	c10.7,3.6,21.5,4,32.5,1.2c10.2-2.6,19.8-6.5,28.7-12c1.8-1.1,3.6-2.4,5-4.4c-0.9-2.3-1.9-4.7-2.8-7c-2-5.2-2.9-10.5-1.5-16.1
	c0.6-2.3,1.4-4.4,2.9-6.2c2.1-2.5,4.7-2.7,7.1-0.6c1.3,1.2,2.4,2.7,3.7,4.2c1-0.8,1.8-1.6,2.7-2.2c1.2-0.8,2.4-1.6,3.8-2
	c3.1-0.9,5.3,0.7,5.8,3.9c0.2,1,0.1,2,0.2,3.2c1.1,0,2.2,0.1,3.3,0.1c2.5,0.1,3.6,1.1,4.2,3.5s-0.2,4.6-1.6,6.5
	c-0.8,1-1.6,1.9-2.6,3.1c1,0.8,1.9,1.5,2.6,2.3c2.7,2.7,2.2,5.7-1.1,7.4c-1.1,0.6-2.3,1-3.5,1.4c0.2,1.7,0.6,3.2,0.7,4.7
	c0,2.4-0.6,2.9-2.8,3.8c-5,1.9-9.2,0-13.4-2.4c-1.8-1.1-3.4-2.6-5.3-4c-1.6,1.2-3.1,2.5-4.8,3.5c-12.2,7.6-25.2,12.7-39.5,14.5
	c-9.3,1.2-18.2-0.3-26.9-3.3c-1.4-0.5-2.9-1-4.8-1.7c0,1.1-0.1,1.8,0.1,2.4c2.3,6.5,3.3,13.4,4.6,20.1c1.7,8.9,4,17.7,5.9,26.5
	c1,4.8,2,9.6,2.7,14.4c0.5,3.1,0.7,6.3-0.6,9.4c-0.6,1.4,0,2.5,0.6,3.7c2.2,4.7,4.4,9.4,6.5,14.1c0.5,1.2,1,2.4,1.5,3.6
	c0.9,2.1,1.7,4.2,3.7,5.7c1.5,1.1,1.1,2.9-0.5,3.9c-1.9,1.2-3.9,2.4-6,3.7c0.2,1,0.3,2,0.6,2.9c1.1,3.1,2,6.3,3.4,9.3
	c1.1,2.5,2.5,4.9,4.2,7c3.3,4.2,8,4.7,12.1,1.4c5.2-4.1,9.5-9.1,11.9-15.5c1.3-3.5,5.6-4.8,8.4-2.4c2.2,1.9,4.2,3.9,6.2,6
	c0.9,1,1.7,2.3,2.2,3.6c1.8,4.3,1.5,8.8,0,13.1c-1.2,3.2-3.6,4.8-6.4,4.7c-2-0.1-3.7-0.8-4.7-2.5c-0.9-1.3-1.6-2.7-2.2-4.2
	c-0.9-2.4-1.6-4.9-2.4-7.4c-0.2-0.8-0.6-1.5-1-2.6c-1.1,1.4-2,2.5-3,3.6c-1.9,2-3.7,4-5.7,5.8c-6.7,6-14.8,3.9-19-2.2
	c-1.6-2.3-3-4.9-4.2-7.5c-1.3-3-2.2-6.2-3.4-9.3c-0.2-0.6-0.6-1.3-0.9-2.1c-1.5,0.5-2.8,0.9-4.2,1.3c-4.8,1.4-8-0.1-10.1-4.7
	c-0.8-1.7-1.3-3.5-1.9-5.3c-0.5-1.5-1-3-1.5-4.6c-1-0.2-2-0.5-2.9-0.4c-5.6,0.5-11.1-0.8-16.6-1.5c-4.6-0.7-9.2-1.8-13.9-2.1
	c-1.4-0.1-2.8-0.5-4.4-0.7c-0.4,0.7-0.8,1.5-1.2,2.2c-2.3,4.6-4.4,9.4-6.8,13.9c-2.5,4.7-4,5.2-9,4.1c-1-0.2-1.9-0.4-2.9-0.5
	c-1.1,1.1-1.3,2.6-1.7,4c-1,3-2.4,5.8-4.2,8.5c-4.1,5.9-10.9,6.4-16,3.9c-3-1.5-5.5-3.6-7.7-6.1c-2-2.2-4-4.5-5.9-6.7
	c-1.1,0-1.1,0.8-1.3,1.5c-1.2,5.7-4.6,9.8-9.2,13c-2.8,1.9-5.9,2.2-8.9,0.5s-4.4-4.4-4.3-7.9c0-1.3,0.1-2.6,0.4-3.8
	c1.5-5.5,3.9-10.5,7-15.2c1.8-2.8,4.3-4.1,7.6-3.8c1.5,0.1,3.1,0.3,4.4,0.4c1.8,3.2,3.4,6,4.9,8.9c2.6,4.7,6,8.8,9.9,12.4
	c1.3,1.3,2.9,2.4,4.5,3.3c4.4,2.4,8.7,1.3,11.7-2.7c2.4-3.3,3.7-7.1,4.6-11.3c-0.9-0.5-1.7-0.9-2.6-1.3c-1.3-0.6-2.7-0.9-4-1.5
	c-1.6-0.7-2.5-2.1-2.1-3.8c0.3-1.8,0.8-3.7,1.5-5.4c0.7-1.9,1.7-3.6,2.6-5.4c2.3-4.9,4.7-9.9,7.1-14.9c-0.4-0.5-0.8-0.9-1.2-1.2
	c-1.3-0.9-1.8-2.2-1.9-3.7c-0.1-1.3,0-2.6,0.1-3.9c0.9-10.8,2.5-21.5,4.2-32.1c1.3-8.3,2.6-16.5,3.9-24.7c0.5-3,1-5.9,1.5-9.1
	c-1.1-0.3-1.8-0.5-2.6-0.7c-3.2-0.7-6.3-1.7-9.3-3.1c-12.2-5.5-22.5-13-31.3-22.7c-6.9-7.5-13.6-15.2-19.2-23.7
	c-0.1-0.1-0.2-0.2-0.4-0.2c-1.1-0.2-1.4,0.8-1.9,1.4c-2.5,3.8-6.3,5.2-10.5,6c-0.8,0.1-1.7,0.1-2.5,0c-2.8-0.3-4-1.6-4.2-4.5
	c-0.1-0.6,0-1.1,0.1-2c-1.1-0.3-2.2-0.5-3.3-0.9c-1.2-0.4-2.5-0.8-3.5-1.5c-2.8-1.9-3.4-5-1.4-7.9c0.5-0.7,1.1-1.3,1.7-2.1
	c-1.6-2.7-2-5.3-0.1-8c1.4-2,2.4-2.5,7.6-3.6c-0.2-0.8-0.5-1.6-0.5-2.4c-0.1-1.7-0.4-3.5-0.2-5.1c0.3-2.6,2.1-3.7,4.6-3
	c1.2,0.4,2.4,1,3.4,1.7c1.4,1,2.7,2.2,4,3.3c0.6,0.5,1.3,1.1,2,1.7c0.9-1,1.7-1.8,2.4-2.7c1.9-2,4.3-2.9,6.9-3.1
	c3.2-0.3,5.4,1.7,6,4.9c0.4,2.5,0,4.9-0.7,7.3c-1.6,5.5-3.7,10.9-7.3,15.7c0.6,2.5,2.1,4.6,3.6,6.7c5.3,7.4,11.2,14.2,17.4,20.7
	c3.3,3.4,6.8,6.6,10.5,9.5c6.2,4.9,13.1,8.7,20.4,11.7c2,0.8,4.1,1.2,6.2,1.7c1.1,0.2,1.3,0,2.5-2.1c-0.8-0.5-1.6-1.1-2.4-1.5
	c-5.7-2.7-11-6.2-15.7-10.4c-8.2-7.2-14.4-16-17.9-26.4c-3.1-8.9-4.3-18.2-3.9-27.6c0.1-2,0.2-4,0.2-6c-8-3.7-10.1-10.8-11.1-18.4
	c-0.6-4.4-0.4-9,1.1-13.3c0.7-1.9,1.5-3.8,2.6-5.4c3.3-4.7,9.1-5.4,13.5-1.7C66.8,360.2,67.7,361.3,69,362.6z M200.2,416.9
	c1.1,0.4,2,0.8,2.9,0.9c1.1,0.1,2.3-0.2,3.4-0.1c5.7,0.2,10.2-2.4,13.8-6.5c3.2-3.6,3.2-6.5,0.4-10.5c-0.7-1.1-1.6-2-2.4-3.1
	c-0.7-0.9-1.4-1.8-1.9-2.9c-1.2-2.5-0.4-4.6,2.1-5.5c1.1-0.4,2.2-0.5,3.3-0.9c1.2-0.4,2.4-0.8,3.6-1.3c1.3-0.6,1.9-1.7,1.7-3.2
	c-0.2-1.1-0.5-2.3-1-3.3c-0.8-1.5-1.7-3-2.7-4.4c-0.9-1.5-1.9-2.9-2.8-4.3c-1.2-2.1-1.1-4.1,0.6-6c0.8-0.9,1.6-1.7,2.3-2.6
	c2.1-2.7,2.2-5.6,0.6-8.5c-0.7-1.2-1.7-2.3-2.6-3.4c-2.1-2.2-4.5-3.9-7.2-5.4c-0.9-0.5-1.8-0.9-2.6-1.4c-1.4-0.9-1.5-2.4-0.3-3.7
	c0.5-0.5,1.1-0.9,1.6-1.4c2.4-2.5,2.8-4.8,1.1-7.8c-0.8-1.3-1.8-2.6-3-3.6c-4.2-3.8-8.9-6.6-14.4-8.2c-4.4-1.3-4.5-1.3-4.5-6.1
	c0-3.5-1.4-6.4-4-8.7c-2.7-2.3-5.7-3.9-9.1-4.5c-5-0.8-9.7-0.4-13.3,3.9c-0.2,0.2-0.4,0.4-0.6,0.6c-0.7,0.6-1.6,1-2.3,0.4
	c-0.5-0.3-0.8-1.1-1-1.8c-0.2-0.7,0-1.4,0-2.1c0.1-3.2-1.4-5.6-4-7.1c-1.7-1-3.6-1.7-5.5-2.2c-3.1-0.8-6.2-0.6-9.4-0.4
	c-4.3,0.2-8,1.5-11.4,4.2c-4.1,3.3-4.6,3.1-7.3-1.6c-2.4-4.1-4.9-5.4-9.6-4.6c-1.5,0.3-3.1,0.7-4.4,1.5c-4.5,2.6-8.1,6.4-10.5,11.1
	c-0.9,1.8-1.6,3.6-0.7,5.8c0.6,1.3-0.5,2.6-1.9,2.7c-0.6,0.1-1.1-0.1-1.7,0c-3.1,0.1-6.3,0.1-9.4,0.4c-3.9,0.5-7.4,2.1-10.2,4.9
	c-2.9,2.9-3.7,6.4-3.3,10.3c0.3,2.1,1.5,3.7,3.3,4.8c1.5,1,2.9,0.6,4.4-0.2c0.8-0.4,1.9-0.6,2.9-0.6c0.9,0,1.8,0.5,1.9,1.5
	c0.1,0.6-0.2,1.4-0.5,1.9c-0.8,1.3-2.1,1.9-3.6,2c-1.1,0.1-1.9,0.4-2.6,1.3c-2.5,3.1-4.1,6.6-3.9,10.7c0.3,4.2,2.2,6.1,5.4,6.8
	c2.2,0.5,4.3,0.6,6.3-0.4c1.9-0.9,3.7-2.1,5.5-3.3c0.8-0.5,1.5-1.3,2.4-1.8c1.2-0.8,2.8,0.1,2.7,1.5c0,1.1-0.2,2.3-0.6,3.4
	c-0.8,2.7-1,5.4-0.8,8.1c0.3,5.9,4.3,9.1,10.1,8.3c0.3,0,0.6-0.1,0.8-0.2c4.2-1.2,8.1-2.9,10.9-6.4c0.3-0.3,0.5-0.9,0.8-1
	c0.6-0.2,1.5-0.5,2-0.2c0.5,0.2,0.9,1.1,0.9,1.7c0.1,0.7-0.4,1.4-0.5,2.1c-0.2,1.7-0.7,3.4-0.6,5.1c0.4,7.5,5.9,11.2,12.7,8.7
	c2.4-0.9,4.6-2.3,6.9-3.5c0.6-0.3,1.2-0.9,1.8-1.1c0.5-0.2,1.3-0.1,1.6,0.2c0.4,0.4,0.7,1.2,0.7,1.9c0,0.5-0.4,1.1-0.5,1.6
	c-0.3,1.7-0.8,3.4-0.9,5.1c-0.1,5.1,2.5,8,7.6,8.6c2.6,0.3,5.1-0.1,7.4-1.4c1-0.6,2-1.2,3-1.6c0.6-0.2,1.5-0.1,1.9,0.2
	c0.4,0.4,0.6,1.3,0.6,1.9c0,0.7-0.4,1.4-0.5,2.1c-0.3,1.8-0.7,3.7-0.6,5.6c0.1,3.9,1.3,7.4,4,10.2c2.9,3,7.6,3.3,10.9,0.7
	c0.8-0.6,1.4-1.5,2.1-2.1c1.2-1,2.8-0.7,3.6,0.8c0.4,0.8,0.6,1.6,1,2.4c0.6,1.3,1.1,2.7,1.9,3.8c2.4,3.6,6.6,4.7,10.6,3
	C197.2,418.3,198.7,417.6,200.2,416.9z M76.7,357.9c-4.9,6.2-8.6,13.9-10.4,21.5c-2.6,10.9-3.7,21.9-3,33c0.6,9.9,2.9,19.4,8.1,27.9
	c4.6,7.4,10,13.9,17.3,18.8c7.2,4.9,14.8,8.6,23.2,10.5c7.5,1.7,15.1,2.6,22.9,2.9c8.3,0.3,16.2-1.3,23.7-4.6
	c8.8-3.8,16.2-9.7,22.8-16.6c4.4-4.6,8-9.7,11.6-14.9c3-4.4,5.6-9,7.6-14c0.2-0.6,0.7-1.3-0.4-1.9c-0.9,0.5-1.8,1.2-2.8,1.7
	c-1.6,0.9-3.4,1.4-5.3,1.3c-4.5-0.1-7.9-2.1-10.4-5.8c-0.8-1.2-1.4-2.5-2.3-3.8c-1,0.5-1.8,1-2.7,1.4c-2.8,1.5-5.7,1.6-8.7,0.8
	c-3.4-1-5.7-3.2-7.4-6.1c-1.8-3-2.8-6.3-2.7-9.9c0-1.2,0.5-2.5-0.3-3.6c-2.3,0.2-4.4,0.6-6.5,0.5c-8.1-0.2-12-3.9-12.8-12
	c-0.1-0.8-0.2-1.5-0.4-2.4c-2,0.7-3.7,1.6-5.5,2c-7.7,1.8-12.8-1.2-15.4-8c-0.4-1.1-0.6-2.2-0.9-3.3c-0.2-0.7-0.3-1.3-0.6-2.3
	c-1.7,0.7-3.1,1.3-4.5,1.9c-3.2,1.4-6.5,2-10,1.4c-3.5-0.5-6-2.5-7.7-5.5c-1.3-2.3-1.8-4.8-1.7-7.5c0-1.5,0.1-3.1,0.1-5.4
	C86.7,359.1,81.9,359.8,76.7,357.9z M175.2,575.5c0-0.3,0.1-0.6,0-0.8c-3.3-7.3-6.6-14.7-9.9-22c-0.4-0.9-1.1-1.6-1.4-2
	c-4.5,1.1-8.6,2.5-12.8,3c-15.5,2.2-31,1-46.5-0.7c-2.7-0.3-5.3-0.7-8.2-1.1c-0.9,1.8-1.8,3.5-2.6,5.1c-1.9,4-3.8,8-5.8,12.1
	c-0.8,1.7-1.7,3.4-2.4,5.1c-0.4,1-0.8,2.2,0.1,3.7c3.5,1.2,7.2,2.5,11,3.7c4.1,1.2,4.8,0.9,6.8-3c2.3-4.5,4.3-9.1,6.4-13.6
	c0.3-0.7,0.5-1.3,0.8-2c0.9-1.7,2.2-2.2,3.8-1.7c2,0.6,4.2,1,6.3,1.3c3.4,0.6,6.8,1,10.1,1.5c6.2,1,12.3,2.3,18.7,1.8
	c0.7-0.1,1.4,0,2.1,0.1c2.7,0.2,3.2,0.5,3.9,3.1c0.6,1.9,1.1,3.9,1.7,5.8c0.5,1.5,1.1,3,1.8,4.4c1.1,2.1,2.3,2.5,4.6,2.1
	C166.5,580.6,172.7,577.6,175.2,575.5z M94.7,530.4c2,1.8,4.4,1.8,6.6,2.1c9.6,1.2,19.2,2.4,28.8,3.5c11.4,1.3,22.7,0.6,33.6-3.3
	c-0.3-4.5-2.3-13.1-3.6-15.7c-3.2,0.5-6.4,1.3-9.6,1.5c-4.3,0.3-8.5,0.8-12.7,1.8c-3,0.7-5.9,0.7-8.9,0.6c-9-0.4-17.9-1.5-26.5-4
	c-1.8-0.5-3.5-1-5.7-0.7C95.7,520.8,94.7,525.6,94.7,530.4z M97.3,511.4c0.5,0.3,0.9,0.5,1.3,0.6c8.5,2.2,17.1,4.2,26,4.8
	c5,0.4,9.9,0.3,14.8-0.8c3.7-0.8,7.6-1.1,11.4-1.4c2.3-0.2,4.5-0.6,6.6-1.4c0.7-0.3,1.3-0.9,2-1.4c-1-3.8-1.5-7.5-2.9-10.9
	c-5.7,0.1-11.3,0.1-16.8,0.2c-0.9,0-1.7,0.2-2.5,0.3c-6.2,1-12.5,0.9-18.7,0c-6.3-0.9-12.7-1.6-19.4-2.4
	C98.2,503.3,97.6,507.3,97.3,511.4z M93.1,546.9c1.6,0.4,3,0.9,4.4,1.2c7.3,1.4,14.7,2,22.1,2.5c10,0.6,20,0.9,29.9-0.5
	c3-0.4,5.9-1,8.7-1.9c6.8-2.4,7.6-2.1,6.4-10.5c0-0.1-0.2-0.2-0.4-0.5c-1.4-0.1-2.9,0.4-4.4,0.8c-5.8,1.6-11.8,2.5-17.8,2.4
	s-12-0.5-17.9-1.2c-8.2-0.9-16.4-2-24.6-3.1c-1.8-0.2-3.6-0.6-5.6-0.9C93.3,539,93.1,542.7,93.1,546.9z M246.2,431.2
	c-3.5,1-5.1,2.4-6.3,5.4c-0.3,0.8-0.5,1.6-1,2.4c-0.6,1-2.3,1-2.8-0.1c-0.4-0.9-0.5-1.9-0.8-2.9c-0.8-2.4-1.7-4.9-4.5-6.2
	c-0.5,0.5-1.1,1-1.4,1.6c-1,1.6-1.5,3.4-1.7,5.3c-1,7.4,2.1,13.7,5.3,20c0.2,0.4,0.5,0.7,0.8,1c2.6,3,5.8,5,9.6,6.2
	c2.2,0.7,3.9,0.5,5.4-1.4c-0.2-0.5-0.3-1.1-0.6-1.5c-0.5-0.8-1.2-1.6-1.7-2.4c-0.7-1.1-0.3-2.5,0.9-2.9c0.9-0.3,2-0.4,2.9-0.7
	c1.3-0.4,2.9-0.1,3.9-1.6c-0.3-1.3-1.4-1.7-2.4-2.1c-1.2-0.5-2.5-0.8-3.6-1.3c-0.6-0.3-1.1-0.9-1.3-1.5c-0.3-0.9,0.4-1.6,1.1-2.1
	c0.9-0.5,1.8-0.9,2.7-1.4c1.5-0.8,2.8-2,3.6-3.6c0.4-0.9,0.7-1.9-0.5-2.8c-0.7,0.1-1.6,0.2-2.4,0.5c-1.3,0.5-2.6,1.3-3.9,1.7
	c-0.6,0.2-1.4,0.1-2-0.2c-0.8-0.5-0.9-1.5-0.5-2.3c0.4-0.9,0.9-1.8,1.3-2.7C246.6,434.3,247.1,432.9,246.2,431.2z M21.4,397
	c-0.3,2.3-0.4,2.4,0.1,3.7c0.9,2.1,1.9,4.2,2.9,6.2c0.4,0.9,0.5,1.7-0.2,2.4c-0.7,0.7-1.5,0.7-2.3,0.3c-0.8-0.4-1.5-0.9-2.3-1.1
	c-1.2-0.3-2.5-0.5-3.8-0.5s-2,0.9-2.5,2s0,2,0.8,2.7c0.6,0.6,1.4,1,2.1,1.5c0.5,0.3,1,0.5,1.4,0.9c0.9,0.8,0.4,2.6-0.7,2.8
	c-1.2,0.3-2.6,0.2-3.7,0.7c-0.6,0.3-1.2,1.2-1.3,2c-0.1,0.5,0.7,1.2,1.2,1.6c1.5,1,3.2,1,4.9,0.8c0.8-0.1,1.6-0.5,2.5-0.7
	s1.8-0.2,2.3,0.7c0.3,0.6,0.3,1.4,0.1,2c-0.1,0.7-0.7,1.3-0.9,1.9c-0.3,0.9-0.5,1.8-0.8,2.8c0.6,0.2,1,0.5,1.4,0.5
	C28,430,33,426,34.3,420.7c0.2-0.9,0.4-1.7,1.3-2.1c1.8-0.7,2.6-2.2,3.2-3.8c1.3-3.3,2.7-6.6,3.8-10c0.5-1.6,0.5-3.4,0.5-5.1
	c0-1.1-0.9-1.8-2-1.8c-3.2,0-6.1,2.5-6.6,5.7c-0.1,0.8,0,1.7,0,2.6s-0.3,1.7-1.4,1.9c-1,0.2-1.6-0.4-2.1-1.2
	c-0.4-0.7-0.7-1.6-1.1-2.3C28,401,24.6,398.1,21.4,397z M154.3,488.3c-1.6,0.2-3.2,0.2-4.7,0.5c-2.7,0.5-5.4,0.4-8.1,0.1
	c-2.3-0.3-4.5-0.3-6.8-0.3c-10.5,0.1-21.1,0.3-31.4-2.5c-0.6-0.2-1.3,0-2.1,0c-0.4,3-1.3,5.7-1.2,8.7c2.1,1.1,4.1,1.4,6.3,1.6
	c5.8,0.6,11.6,1.2,17.4,2c3.9,0.5,7.7,0.1,11.5-0.2c4.3-0.3,8.5-0.5,12.8-0.7c1.8-0.1,3.7,0.1,5.6-0.1c0.8,0,1.5-0.5,2.5-0.8
	C155.4,493.7,155.5,491,154.3,488.3z M153.5,484.1c-0.8-3.2-1.5-6.2-2.9-9.1c-15.9,2.9-31.2,0.7-46.5-3.4c-1.6,3.3-1.4,6.6-2,9.8
	c2.4,1.5,5,1.8,7.5,2.3c7.3,1.4,14.7,1.4,22.1,1.3c4-0.1,8,0.2,11.9,0.4C146.9,485.5,150.1,485.1,153.5,484.1z M59.4,393.3
	c0.3-0.3,0.5-0.5,0.6-0.8c0.2-0.4,0.3-0.8,0.3-1.2c0.9-7.4,2.5-14.7,5.1-21.8c1.4-3.6-0.7-7.3-4.4-8.5c-2-0.6-3.7-0.2-5.1,1.3
	c-1.5,1.6-2.4,3.5-3,5.6c-0.9,3.1-1.1,6.2-0.9,9.4c0.2,3.9,1,7.7,2.8,11.2C55.9,390.5,57.1,392.5,59.4,393.3z M38.7,594.7
	c0,0.2,0,0.5,0,0.8c0,2,0.6,3.7,2.5,4.7c1.8,1,3.6,0.7,5.2-0.5c3.8-2.7,6.4-6.1,7.4-10.7c0.3-1.4,0.6-2.8,0.9-4.2
	c0.3-1.3,0.3-2.5-0.5-3.7c-0.5-0.8-1-1.7-1.4-2.7c-0.6-1.4-1.7-1.8-3.1-1.8c-1.8,0-3.3,0.6-4.4,2.2c-2.7,4.1-4.8,8.5-6.2,13.2
	C38.9,592.9,38.8,593.8,38.7,594.7z M194.2,441.9c6.2-0.2,11.2-1.6,15.6-4.7c1.8-1.2,3.2-2.8,4.3-4.7c0.4-0.7,0.8-1.5,1-2.4
	c0.7-3.1-0.2-5.1-3.1-6.2c-2.3-0.8-4.6-1.2-7.2-1c-1.6,3.1-3,6.2-4.7,9.2C198.3,435.2,196.4,438.2,194.2,441.9z M211.8,587.2
	c-2.1,0.5-2.7,1.7-2.6,3.3c0.6,5.2,2,10.1,4.1,14.9c0.3,0.8,0.9,1.4,1.5,2c0.7,0.7,2,0.7,2.7,0s1.4-1.6,1.6-2.5
	c0.4-1.7,0.6-3.4,0.7-5.1c0.2-3.2-0.9-5.9-3.3-8.1C215.1,590.2,213.5,588.8,211.8,587.2z"/>
<path class="st20" d="M99.7,426.4c0.3-3,0.6-6,1-8.9c0.1-0.5,1.1-1.2,1.5-1.1c7.7,1.4,15.5,2,23.1,4.2c2.7,0.8,5.5,1.6,8.2,2.5
	c0.9,0.3,1.9,0.6,2.8,1.1c3.2,1.6,4.1,3.4,2.7,6.6c-1.9,4.5-4,8.9-6.4,13.1c-3.9,6.6-10,9.1-17.5,8c-6.2-0.9-12.5-6.6-14-13
	C100,434.7,99.5,430.6,99.7,426.4z M135.6,428c-0.7-0.4-1.3-0.8-2-1.1c-8.9-3.1-18.1-5.2-27.5-6.1c-1.4-0.1-2.1,0.4-2.3,1.9
	c-0.5,4.6-0.5,9.2,0.4,13.7c1,5.3,4.2,8.7,8.9,10.8c3.8,1.7,10.9,1.5,14.8-3.6c1-1.2,1.9-2.5,2.6-3.9c1.6-3.2,3.2-6.4,4.7-9.7
	C135.5,429.6,135.4,428.8,135.6,428z"/>
<path class="st21" d="M135.6,428c-0.1,0.8-0.1,1.5-0.4,2.1c-1.5,3.3-3,6.5-4.7,9.7c-0.7,1.4-1.7,2.7-2.6,3.9
	c-3.9,5.1-11,5.3-14.8,3.6c-4.7-2.1-7.8-5.6-8.9-10.8c-0.9-4.6-0.9-9.1-0.4-13.7c0.2-1.5,0.9-2.1,2.3-1.9c9.4,0.9,18.5,3,27.5,6.1
	C134.3,427.2,134.8,427.6,135.6,428z"/>
<path class="st20" d="M96.8,396.8c-0.1,3.9-2.9,7-6.3,7.3c-2.2,0.2-3.9-0.8-4.9-2.7c-1.4-2.6-0.5-7.7,1.8-9.6c1.8-1.5,3.9-1.9,6-1.2
	c1.9,0.7,2.9,2.3,3.2,4.2C96.7,395.6,96.7,396.3,96.8,396.8z"/>
<path class="st20" d="M152.2,419.3c0.4-3,3.1-4.9,6.3-4.4c3,0.5,5.3,3.8,4.8,7.1c-0.3,2.4-3.8,4.9-6.4,4.6
	C154.2,426.3,151.8,422.6,152.2,419.3z"/>
</svg>
